<?xml version="1.0" encoding="UTF-8" standalone="no"?>
<!-- Created with Inkscape (http://www.inkscape.org/) -->

<svg
   width="188.05472mm"
   height="170.32413mm"
   viewBox="0 0 188.05472 170.32413"
   version="1.1"
   id="svg1"
   xmlns="http://www.w3.org/2000/svg"
   xmlns:svg="http://www.w3.org/2000/svg">
  <defs
     id="defs1" />
  <g
     id="layer1"
     transform="translate(-11.021854,-59.728604)">
    <path
       d="m 199.07658,136.622 c -0.322,51.62126 -42.33016,93.43072 -94.02657,93.43072 -51.895646,0 -94.028157,-42.13251 -94.028157,-94.02815 0,-0.32676 0.0016,-0.65326 0.005,-0.97922 5.194035,2.32595 8.258175,3.24829 9.575006,3.64463 46.863525,14.10758 49.555665,14.48673 57.117455,22.10832 6.13568,6.18464 1.75048,-8.29866 9.63797,-23.76276 15.609106,-30.60276 40.565926,-10.49311 41.217856,-10.46427 2.54662,0.11245 5.58747,-1.30122 11.73666,3.311 2.61593,1.96241 1.75868,2.49264 1.53828,2.59 -18.63222,8.21928 -19.80723,9.97929 -19.14287,23.55004 0.26776,5.46814 0.61516,5.89571 5.60044,8.20102 3.06388,1.41684 2.8411,-0.66119 5.86396,-1.57956 3.67744,-1.11734 23.12273,-15.95438 42.1341,-19.14737 6.66591,-1.11945 9.57951,-0.69876 22.77084,-6.8744 z m -75.51711,31.16051 c 4.44156,-0.7747 2.02194,-2.84851 1.80737,-3.03239 -2.56143,-2.19552 -3.48615,-1.63169 -4.01532,-4.92152 -0.61119,-3.79889 0.13203,-4.26349 -1.77853,-5.452 -15.10691,-9.39747 -17.99987,-7.29271 -19.17991,-5.7285 -1.3163,1.7452 3.44593,4.89559 3.87773,5.18134 7.51496,4.97152 12.93151,15.06167 19.28866,13.95307 z M 51.120779,138.16293 c -0.05001,0.27146 -0.210873,0.38232 -0.448469,0.33867 -0.243945,-0.01 -0.481806,-0.0534 -0.889264,-0.12832 -1.385888,-0.29025 -2.845858,-0.5588 -4.256881,-0.71279 -0.108215,0.0151 -0.237861,-0.0439 -0.339725,-0.0624 -0.225161,-0.11166 -0.462757,-0.15558 -0.713052,-0.13124 -0.66384,-0.0169 -1.308894,-0.13546 -1.929077,-0.38999 -0.225161,-0.11166 -0.469107,-0.12145 -0.706967,-0.1651 -2.200804,-0.44001 -4.44209,-0.85223 -6.642894,-1.29196 -1.052512,-0.19368 -2.083858,-0.31327 -3.123935,-0.57468 -1.040077,-0.26167 -2.120636,-0.4953 -3.185583,-0.62098 -0.54954,-0.0661 -1.133211,-0.13837 -1.6764,-0.23812 -0.03387,-0.006 -0.07408,0.0214 -0.108215,0.0151 -0.783696,-0.31962 -1.629833,-0.29977 -2.478617,-0.45588 l -0.169862,-0.0312 c -0.469106,-0.12144 -0.579967,-0.28231 -0.418306,-0.7792 0.05609,-0.30559 0.112448,-0.61118 0.140758,-0.95699 0.01323,-0.45376 0.06059,-0.90144 0.209815,-1.33033 0.15531,-0.46302 0.174625,-0.95091 0.262202,-1.42637 0.09366,-0.50932 0.125677,-1.06494 0.423068,-1.53696 0.111655,-0.22516 0.232305,-0.30824 0.482336,-0.33258 0.920485,-0.0413 1.853406,-0.15055 2.776273,-0.0159 0.278077,0.0161 0.528108,-0.008 0.80592,0.008 1.124215,-0.004 2.229644,0.0939 3.334809,0.19209 1.275291,0.12911 2.593975,0.0206 3.887787,0.0481 l 5.830358,-0.0159 c 0.07408,-0.0217 0.148432,-0.0431 0.188648,-0.0707 0.03387,0.006 0.04022,-0.0278 0.08043,-0.0556 0.0463,-0.0616 0.01852,-0.10186 -0.04313,-0.14817 l -4.107127,-1.52797 c -0.360892,-0.13652 -0.681832,-0.30083 -1.008857,-0.43127 l -2.786327,-1.0742 c -0.993775,-0.32306 -2.033852,-0.58447 -3.008841,-1.00965 -0.552186,-0.2421 -1.20994,-0.29263 -1.789907,-0.57494 -0.900906,-0.44662 -1.8669,-0.72946 -2.786327,-1.07421 -0.135731,-0.0249 -0.23151,-0.0778 -0.327025,-0.13044 -0.354806,-0.17039 -0.437885,-0.29104 -0.375443,-0.63077 0.143668,-0.78078 0.219339,-1.57427 0.390789,-2.3151 0.171186,-0.74084 0.308769,-1.48775 0.412221,-2.24129 l 0.09366,-0.50932 c 0.08996,-0.29924 0.250825,-0.41011 0.556418,-0.35401 l 2.648744,0.48736 c 0.678921,0.12488 1.333235,0.3855 2.037292,0.37465 0.284162,-0.018 0.549539,0.0659 0.821266,0.11589 1.629834,0.29977 3.234796,0.73554 4.877065,0.96731 0.991129,0.14711 2.02221,0.2667 3.034771,0.48789 1.379537,0.32412 2.796645,0.44424 4.176448,0.76835 l 0.169862,0.0312 c 2.420673,0.19949 4.819121,0.71067 7.217306,1.22211 0.29951,0.0902 0.64532,0.11879 0.95091,0.17489 0.16986,0.0312 0.30559,0.0561 0.43524,0.11509 0.16351,0.0653 0.24024,0.21987 0.24924,0.36195 0.0214,0.0741 0.009,0.14208 0.003,0.17595 -0.18045,0.59875 -0.23125,1.2565 -0.3437,1.86769 l -0.25611,1.39224 c -0.0312,0.1696 -0.09,0.29924 -0.14896,0.42889 -0.0526,0.0955 -0.21352,0.20637 -0.28152,0.19394 -0.51832,-0.23575 -1.105164,-0.0982 -1.602051,-0.25956 -0.367242,-0.10266 -0.78105,-0.14367 -1.142207,-0.28046 -0.259027,-0.11774 -0.598487,-0.18018 -0.876564,-0.19632 -0.460111,0.0209 -0.901436,-0.0603 -1.343025,-0.14155 -1.6637,-0.30612 -3.33375,-0.57811 -4.997715,-0.88424 l -3.389392,-0.65847 c -0.203729,-0.0373 -0.413809,-0.041 -0.617538,-0.0783 0,0 -0.07408,0.0214 -0.08043,0.0553 -0.0061,0.0341 0.02143,0.0741 0.02143,0.0741 0.144992,0.16722 0.336021,0.27252 0.53975,0.31009 1.09564,0.34184 2.552171,0.82047 3.607594,1.1901 1.049073,0.40349 2.09841,0.80724 3.159919,1.14273 0.857779,0.29819 1.743339,0.63659 2.63525,0.94113 0.333375,0.0966 0.654314,0.26087 1.015206,0.3974 0.762264,0.24553 1.518179,0.52493 2.280443,0.77047 0.42915,0.14922 0.4781,0.26352 0.44344,0.6432 0.003,0.17621 -0.0286,0.34581 -0.0659,0.54954 -0.13123,0.71305 -0.30268,1.45388 -0.440001,2.20107 -0.03757,0.20373 -0.07488,0.40745 -0.146315,0.60483 -0.06879,0.3736 -0.195527,0.49054 -0.615685,0.48366 -0.358246,0.0394 -0.710142,0.0447 -1.096169,0.0439 -0.318294,0.0119 -0.636323,0.0236 -0.982133,-0.005 -0.481542,-0.0535 -0.941652,-0.0328 -1.429544,-0.0524 -1.293812,-0.0273 -2.575189,-0.1225 -3.869267,-0.14976 -0.948002,0.001 -1.862137,0.008 -2.816225,0.0437 -0.596106,-0.005 -1.204647,0.0593 -1.794404,0.0209 -0.271462,-0.05 -0.528108,0.008 -0.80592,-0.008 -0.358246,0.0392 -1.080294,-0.23389 -1.380332,0.0619 0.295804,0.30004 1.027642,0.32941 1.367102,0.39185 1.969559,0.36221 3.945202,0.69056 6.016361,1.07156 0.528108,-0.008 1.120775,0.20611 1.725612,0.35243 1.487752,0.30877 3.185583,0.62097 4.704821,0.76015 l 0.101865,0.0185 c 0.243945,0.01 0.354806,0.17065 0.345016,0.4146 l -0.08123,0.44159 c -0.20611,1.12051 -0.440002,2.2008 -0.537898,3.30623 z m 11.299825,-29.8532 c -0.33337,0.44582 -0.70988,0.82709 -1.05648,1.22581 -0.0812,0.0728 -0.11536,0.13283 -0.20955,0.15875 -0.69771,0.3175 -1.39541,0.635 -2.17514,0.46885 -0.86942,-0.21749 -1.92749,-0.38365 -2.73712,-0.84535 -0.0302,-0.0169 -0.0471,0.013 -0.0773,-0.004 -0.7112,-0.28602 -1.152,-0.13997 -1.40838,0.58817 -0.39291,0.96811 -0.96599,1.83382 -1.46182,2.70351 -0.0685,0.12012 -0.1196,0.21008 -0.14103,0.31724 -0.0384,0.13705 -0.0296,0.26114 0.0431,0.34237 l 1.65444,1.42028 c 0.38153,0.3765 0.99007,0.8427 1.38853,1.18904 l 0.23178,0.29104 c 0.0857,0.12832 0.12435,0.26961 0.0389,0.41963 -0.17118,0.30004 -0.32914,0.6469 -0.50006,0.94694 -0.47466,0.7628 -0.93636,1.57242 -1.41102,2.33521 l -0.13679,0.23998 c -0.0685,0.11986 -0.23972,0.14155 -0.37254,0.0262 -0.42862,-0.3638 -1.06706,-0.84693 -1.47875,-1.24063 -1.165756,-1.02235 -2.297379,-2.10476 -3.510229,-3.11414 -0.621507,-0.51329 -1.161521,-1.09935 -1.881452,-1.50971 -0.300038,-0.17119 -0.518584,-0.41487 -0.73713,-0.65882 -0.587375,-0.57335 -1.225814,-1.05648 -1.877218,-1.58697 -0.355865,-0.28231 -0.724429,-0.61171 -1.092994,-0.94112 -0.488685,-0.39767 -0.977106,-0.7956 -1.48299,-1.16337 -0.552714,-0.35481 -1.0541,-0.79984 -1.525587,-1.22741 -0.827352,-0.71014 -1.590146,-1.46314 -2.4003,-2.20318 -0.458523,-0.38074 -0.964406,-0.74851 -1.422929,-1.12924 -0.754327,-0.62865 -1.572948,-1.2147 -2.344209,-1.81346 -0.398727,-0.34634 -0.780256,-0.72284 -1.191683,-1.11654 -0.115623,-0.14552 -0.133085,-0.3937 -0.03043,-0.57362 0.252148,-0.37279 0.508794,-0.82285 0.744008,-1.16575 0.64135,-0.985567 1.021557,-2.000777 1.662907,-2.986347 l 0.30771,-0.54002 c 0.149754,-0.19261 0.355335,-0.27437 0.569383,-0.23177 0.732367,0.17912 1.413669,0.44847 2.124869,0.73448 0.865188,0.29475 1.683544,0.60219 2.531798,0.92684 0.591079,0.21801 1.148027,0.49583 1.739371,0.71358 0.591079,0.21775 1.135062,0.44847 1.730639,0.58923 1.293548,0.379937 2.548732,0.896927 3.791215,1.366567 l 4.558241,1.76424 c 0.95118,0.42307 1.91929,0.81598 2.8874,1.20915 1.13533,0.44847 2.29606,0.71278 3.41418,1.19142 0.51435,0.21351 1.07554,0.41433 1.64069,0.53789 0.53551,0.10663 1.28931,0.1786 1.82853,-0.0701 0.20558,-0.0818 0.31247,-0.33867 0.39,0.22225 0.12515,0.82629 -0.10134,1.57162 -0.61463,2.19313 z m -12.605544,1.75525 c 0.324909,-0.56992 0.675482,-1.04564 0.961761,-1.75657 0.119856,-0.21008 0.192352,-0.4072 0.342106,-0.60008 0.183886,-0.25268 0.115094,-0.41116 -0.201877,-0.55218 -0.96811,-0.39291 -1.970617,-0.72602 -2.921794,-1.14909 -1.208087,-0.52969 -2.433373,-1.02976 -3.692789,-1.46949 -1.062302,-0.36725 -1.983581,-0.77312 -3.028686,-1.17052 -0.03016,-0.0169 -0.17145,0.0217 -0.201348,0.004 -0.08123,0.073 -0.0085,0.15425 0.0344,0.21854 0.252942,0.18389 0.398727,0.34634 0.634471,0.56013 0.398463,0.3466 0.844286,0.68024 1.242748,1.02658 0.385763,0.29951 0.737394,0.65881 1.092994,0.94112 0.861483,0.65008 1.769798,1.2872 2.648479,1.90738 -0.0172,0.0299 0.145785,0.16272 0.145785,0.16272 0.874184,0.69718 1.572684,1.21444 2.447132,1.91162 0.252677,0.18388 0.359833,0.20531 0.496622,-0.0347 z m 16.506294,-6.77281 c -0.2241,0.21511 -0.47228,0.40534 -0.7194,0.5469 -0.74242,0.47281 -1.53458,0.99351 -2.48497,0.90064 -1.27238,0.11985 -2.33627,-0.39053 -3.37502,-0.92499 -0.45932,-0.22939 -0.86757,-0.55536 -1.20121,-0.95276 -0.64532,-0.67284 -1.29064,-1.34567 -1.86108,-2.08994 -0.23812,-0.29793 -0.50191,-0.52335 -0.78978,-0.773377 -0.69612,-0.57626 -1.4142,-1.27476 -1.96083,-1.99443 -0.92816,-1.16681 -2.006597,-2.1418 -2.961743,-3.187172 -0.286808,-0.298979 -0.597429,-0.622829 -0.95885,-0.850106 -0.193411,-0.101865 -0.312738,-0.226219 -0.4064,-0.423598 -0.284692,-0.39661 -0.617273,-0.843227 -1.026848,-1.120246 -0.6731,-0.502444 -1.219729,-1.221846 -1.743604,-1.867694 -0.736865,-0.967581 -1.227667,-2.027766 -1.152261,-3.295914 0.0019,-0.09763 0.004,-0.195263 -0.01905,-0.269081 -0.04207,-1.490398 0.47334,-2.798234 1.328738,-4.001559 0.402696,-0.577585 0.853281,-1.105429 1.471083,-1.458912 0.04868,0.0011 0.09869,-0.04683 0.148431,-0.09446 0.700617,-0.815711 1.754717,-1.013619 2.690548,-1.38483 0.123561,-0.07064 0.294746,-0.09154 0.441325,-0.08837 1.026051,-0.02752 2.076181,-0.03016 3.015461,0.59981 0.31273,0.226219 0.72495,0.356923 1.08664,0.5842 0.24103,0.151606 0.50588,0.328083 0.72099,0.552185 0.35851,0.373857 0.74004,0.821267 1.09749,1.243807 0.54769,0.670718 0.75062,1.480873 0.70829,2.334418 -0.0299,0.268023 -0.0839,0.511175 -0.23521,0.752211 -0.20241,0.337608 -0.381,0.700087 -0.60722,1.012825 -0.12568,0.168539 -0.27517,0.311944 -0.44847,0.430212 -0.44556,0.283898 -0.8898,0.518848 -1.35811,0.728927 -0.31988,0.115359 -0.63764,0.133086 -0.95356,0.05345 -0.0487,-0.0011 -0.12038,-0.07593 -0.11959,-0.124619 0.027,-0.121708 0.054,-0.243152 0.10478,-0.339725 0.1815,-0.509058 0.118,-0.974195 -0.0931,-1.393825 -0.44688,-0.815181 -1.06838,-1.462881 -1.8661,-1.845733 -0.410371,-0.228335 -0.850903,-0.188648 -1.221584,0.02328 -0.543983,0.330729 -1.016265,0.735806 -1.249892,1.390385 -0.206375,0.532871 -0.168539,1.070769 0.237596,1.494367 0.381529,0.447675 0.688181,0.966787 1.169194,1.318683 0.337608,0.202406 0.599546,0.525198 0.835556,0.92075 0.1651,0.271992 0.42915,0.497417 0.64426,0.721519 2.08227,2.021416 3.19855,3.534039 6.02271,6.278835 0.23918,0.24923 0.47704,0.54715 0.69109,0.8202 0.6186,0.79428 1.36049,1.51792 2.17911,2.07222 0.40931,0.27702 0.84561,0.432587 1.35969,0.37015 0.31883,-0.0667 0.56595,-0.20822 0.79031,-0.42333 l 0.52308,-0.50192 c 0.15055,-0.19208 0.27623,-0.36036 0.3302,-0.60351 0.0889,-0.75512 -0.0444,-1.39277 -0.54424,-2.01375 -0.16722,-0.17436 -0.30983,-0.37253 -0.50086,-0.57203 -0.64532,-0.67257 -1.24195,-1.344345 -1.88727,-2.01718 -0.21511,-0.224102 -0.38127,-0.44741 -0.62124,-0.6477 -0.1196,-0.124619 -0.263,-0.274108 -0.38762,-0.154517 -0.24897,0.238919 -0.59902,0.6223 -0.92287,0.933186 -0.24817,0.189971 -0.41936,0.210873 -0.6596,0.01058 -0.2876,-0.250296 -0.52679,-0.499269 -0.74189,-0.723635 -0.52679,-0.499269 -1.00489,-0.997479 -1.43405,-1.494896 l -0.11932,-0.124619 c -0.0958,-0.09948 -0.0667,-0.318823 0.0331,-0.414337 0.34872,-0.334698 0.64982,-0.719138 1.04537,-0.955146 0.42042,-0.259821 0.74427,-0.570442 0.97155,-0.932127 0.5543,-0.818621 1.3716,-1.363134 2.09206,-1.958711 0.14843,-0.09446 0.31882,-0.06668 0.43921,0.0093 0.14446,0.100541 0.26405,0.22516 0.38364,0.349779 0.59426,0.769408 1.26551,1.369219 1.9349,2.066925 0.54875,0.621771 1.09935,1.146175 1.67296,1.744133 l 0.3347,0.348721 c 0.86042,0.896937 1.33641,1.493044 2.19684,2.389981 0.54953,0.573093 1.12633,1.024733 1.60125,1.669253 0.33761,0.20241 0.47705,0.54716 0.8136,0.79851 l 0.4064,0.4236 c 0.38232,0.39846 0.40507,0.47228 -0.0175,0.82974 l -0.22516,0.26405 c -0.32094,0.16404 -0.59584,0.47598 -0.82126,0.73977 -0.17542,0.21617 -0.42148,0.30877 -0.71226,0.20506 -0.19447,-0.0529 -0.3638,-0.12965 -0.53393,-0.1577 -0.63077,-0.20849 -0.65564,-0.18467 -0.59611,0.47599 0.0408,0.39158 -0.11271,0.730247 -0.1688,1.070767 -0.10769,0.4863 -0.18653,0.75327 -0.46355,1.16258 -0.20135,0.28892 -0.40375,0.62653 -0.6768,0.84058 -0.27305,0.21405 -0.47361,0.45402 -0.6739,0.694 z m 8.36375,-7.503847 c -0.15505,0.0759 -0.35613,0.13626 -0.51118,0.21246 -0.20108,0.0601 -0.35507,-0.0183 -0.44635,-0.20399 l -1.30837,-2.665412 c -0.21378,-0.356659 -0.36512,-0.744009 -0.54795,-1.115748 l -0.031,0.01508 c -0.47096,-1.03796 -0.98822,-2.091531 -1.4904,-3.11441 l -0.0304,-0.06191 c -0.62653,-0.884766 -0.99007,-1.860285 -1.49278,-2.805641 -0.18256,-0.372005 -0.24103,-0.804863 -0.48577,-1.146175 -0.24448,-0.341577 -0.39608,-0.728663 -0.57865,-1.100667 -0.4564,-0.929746 -0.94403,-1.844146 -1.38509,-2.742935 -0.91308,-1.859757 -1.81002,-3.765286 -2.72283,-5.625042 l -1.79546,-3.657071 c -0.10663,-0.216958 -0.0749,-0.309298 0.12674,-0.446881 0.37253,-0.259821 0.76014,-0.488421 1.1631,-0.686329 0.75909,-0.334169 1.51739,-0.591079 2.2151,-0.972079 0.91466,-0.487363 1.88938,-0.773642 2.72785,-1.41605 0.47969,-0.120121 0.97499,-0.28628 1.47029,-0.452438 1.16073,-0.37756 2.30187,-0.168539 3.42609,0.241036 0.56965,0.220397 1.10728,0.610393 1.53617,1.0922 0.56674,0.60616 1.00912,1.350697 1.46738,2.048668 0.2286,0.387879 0.48842,0.760148 0.68633,1.163109 0.42598,0.867833 0.96017,1.721114 1.24645,2.695839 0.12065,0.402431 0.30321,0.774171 0.48577,1.146175 0.60749,1.39409 0.58156,2.829983 0.1233,4.247092 -0.36433,1.294341 -1.1893,2.199481 -2.30637,2.901421 -0.57415,0.397404 -1.16364,0.763587 -1.81372,1.005945 -0.21696,0.106627 -0.41884,0.243946 -0.62045,0.38153 -0.12409,0.06085 -0.14049,0.18415 -0.0484,0.292893 0.41302,0.528109 0.60907,1.162579 0.83609,1.781969 0.16695,0.418042 0.36459,0.821002 0.57758,1.254919 0.42598,0.867833 0.83635,1.781704 1.30863,2.665412 0.33523,0.604573 0.76015,1.626659 1.15729,2.200804 0.16854,0.186532 0.25929,0.449792 0.381,0.697707 0.0913,0.186002 0.0593,0.3556 -0.15769,0.462227 -0.40349,0.274902 -0.77603,0.534723 -1.20994,0.747712 -0.63553,0.35057 -1.30175,0.63897 -1.95236,0.95859 z m -2.60985,-14.796025 1.20861,-0.593461 c 0.186,-0.09128 0.37201,-0.182562 0.54266,-0.3048 0.46567,-0.305329 0.68474,-0.720725 0.55007,-1.308364 -0.10477,-0.448469 -0.23998,-0.959115 -0.43788,-1.362075 -0.53076,-1.316302 -1.07792,-2.509309 -1.79414,-3.811588 -0.12171,-0.247914 -0.35163,-0.481012 -0.5043,-0.713846 -0.30559,-0.465402 -0.68977,-0.699823 -1.26127,-0.68871 -0.46328,-0.0032 -0.91175,0.1016 -1.31471,0.299244 -0.21696,0.106627 -0.41857,0.24421 -0.65061,0.319616 -0.43392,0.21299 -0.49663,0.320675 -0.28364,0.754592 l 1.65682,3.60971 c 0.4879,0.837407 0.92816,1.890713 1.4613,2.898246 0.12171,0.247915 0.21219,0.510911 0.34978,0.712788 0.0913,0.186002 0.27622,0.248973 0.47731,0.188648 z m 15.78901,8.999008 c -0.23363,0.06165 -0.31803,0.01243 -0.38868,-0.254794 -0.29951,-1.134798 -0.59901,-2.26986 -0.86492,-3.413654 -0.36116,-1.368954 -0.69771,-2.779713 -1.13453,-4.164277 -0.22728,-0.725488 -0.38762,-1.468702 -0.53922,-2.178579 -0.0635,-0.375973 -0.13574,-0.785548 -0.29951,-1.135063 -0.13706,-0.249502 -0.2077,-0.516466 -0.23601,-0.759089 -0.0955,-0.903023 -0.34899,-1.729052 -0.63606,-2.545821 -0.26934,-0.750358 -0.44741,-1.560248 -0.61648,-2.3368 0.005,-0.251354 -0.0566,-0.484981 -0.1516,-0.709877 -0.29951,-1.135063 -0.63236,-2.261394 -0.93187,-3.396456 -0.26432,-1.001448 -0.51964,-1.969559 -0.75062,-2.979738 -0.16034,-0.743214 -0.46329,-1.484577 -0.59029,-2.236787 -0.0458,-0.309298 0.0614,-0.4445 0.36169,-0.523875 l 1.1684,-0.30824 c 0.43418,-0.114564 0.91202,-0.06218 1.29328,-0.377031 0.42704,-0.0056 1.08585,-0.215106 1.4777,-0.354277 0.29157,-0.112448 0.26009,0.03863 0.39899,0.430477 0.0688,0.124619 0.0707,0.266964 0.11457,0.433917 0.26432,1.001447 0.52176,2.111904 0.78581,3.113352 0.27675,1.319741 0.71173,2.561695 1.05516,3.86371 0.47757,1.944952 1.15067,4.766998 1.39753,5.701506 0.19367,0.734483 0.36301,1.511036 0.6903,2.210329 0.15478,0.316177 0.29765,0.992717 0.34342,1.302015 0.1995,1.161521 0.42281,1.602316 0.72232,2.737379 0.0616,0.233627 0.20082,0.625475 0.23601,0.75909 0.037,0.275695 0.10742,0.542925 0.16933,0.776552 0.20955,0.658812 0.3855,1.32662 0.56171,1.994164 0.17806,0.80989 0.48075,1.551517 0.65881,2.361406 0.0442,0.166952 0.11457,0.433917 0.0918,0.618596 -0.0159,0.07541 -0.14049,0.144198 -0.23177,0.203994 -0.2249,0.09499 -0.48313,0.198702 -0.75036,0.269346 -1.1348,0.299508 -2.28759,0.532077 -3.40492,0.898525 z M 96.26478,87.9982 c -0.0688,0.0045 -0.17225,0.01085 -0.27782,-0.0172 -0.65457,0.04128 -0.72363,0.04551 -0.73236,-0.645848 0.0236,-0.174361 -0.0196,-0.310092 -0.0281,-0.44794 -0.009,-0.137848 -0.0497,-0.238919 -0.0585,-0.376767 0.0101,-2.595297 -0.22331,-5.209645 -0.35348,-7.830608 -0.0585,-0.930275 -0.11695,-1.860814 -0.24421,-2.786856 -0.0669,-0.514615 -0.0651,-1.033727 -0.13203,-1.548342 -0.14499,-2.308754 -0.28999,-4.617243 -0.46964,-6.923881 -0.0431,-0.689239 -0.1188,-1.341702 -0.19447,-1.994164 -0.0669,-0.514615 -0.0971,-0.997215 -0.0262,-1.520561 0.0214,-0.208756 0.008,-0.41566 -0.005,-0.6223 -0.12091,-0.822589 -0.17065,-1.615281 -0.18812,-2.444485 -0.0175,-0.275696 0.11377,-0.387615 0.35507,-0.402696 l 1.72932,-0.005 c 0.17251,-0.01085 0.45244,0.04075 0.58579,-0.03678 0.67839,-0.215636 1.3073,-0.116681 1.99867,-0.125413 0.55351,-2.64e-4 1.14353,0.03175 1.68619,-0.140758 0.34025,-0.09049 0.72575,-0.01085 1.06839,-0.06694 1.3716,-0.18997 2.75219,-0.242093 4.16507,-0.330993 0.24103,-0.01508 0.31432,0.04948 0.36407,0.28866 0.0474,0.204523 0.16377,0.404813 0.14234,0.613569 -0.073,1.042458 0.16193,2.030942 0.0892,3.0734 -0.0495,0.314325 -0.11192,0.42201 -0.45429,0.478102 -0.58579,0.03678 -1.13057,0.17489 -1.79176,0.112712 -0.44583,0.06244 -0.89588,0.05609 -1.34382,0.0844 l -0.61807,0.07329 c -0.86148,0.05424 -1.7272,0.03942 -2.61884,0.164571 -0.13573,0.04313 -0.19818,0.150812 -0.22596,0.256381 0.004,0.06906 -0.0259,0.139965 -0.0217,0.209021 0.17303,1.649677 -10e-4,3.28639 0.20637,4.93395 0.0151,0.241035 0.0302,0.482335 0.0799,0.721519 0.0474,0.204523 0.0624,0.445558 0.17674,0.611452 0.15293,0.232569 0.37915,-0.02381 0.5879,-0.0024 0.73237,0.09234 1.49252,0.07911 2.20742,-0.103982 0.17013,-0.04524 0.30798,-0.05398 0.44794,-0.02831 0.62891,0.09895 1.28164,0.02328 1.90182,-0.01561 0.34449,-0.0217 0.38127,0.01058 0.50827,0.383117 0.17251,0.542661 0.17277,1.096169 0.13626,1.617398 0.009,0.691356 0.0868,1.378215 0.0955,2.069571 0.013,0.206904 -0.0817,0.351102 -0.28627,0.398727 -0.37465,0.0926 -0.85276,0.191823 -1.2663,0.217752 -1.27503,0.08017 -2.59292,0.02461 -3.85921,0.242623 -0.13573,0.04313 -0.23469,0.118533 -0.22622,0.256381 0.013,0.20664 -0.0106,0.381 2.6e-4,0.553508 0.12515,0.891382 0.0802,1.828271 0.17092,2.722034 0.0995,1.03161 0.13203,2.10185 0.30057,3.129227 0.0431,0.135731 -0.0151,0.312208 0.0281,0.447939 0.007,0.103452 0.0452,0.170127 0.14869,0.163513 0.10557,0.02805 0.17436,0.02381 0.27781,0.0172 0.78608,-0.153194 1.55046,-0.09737 2.34315,-0.147109 1.12184,-0.312737 2.55429,-0.09128 3.68036,-0.335227 l 0.37915,-0.02381 c 0.3122,0.01508 0.38549,0.07964 0.40296,0.355335 0.0238,0.379148 0.14869,0.717021 0.10371,1.100402 -0.0645,0.626798 0.0799,1.275027 0.11907,1.895211 0.0108,0.172243 -0.013,0.346868 0,0.553508 -0.0148,0.312473 -0.10954,0.456671 -0.41963,0.47625 -0.72364,0.04524 -1.44304,0.159808 -2.45084,0.08467 -0.10557,-0.02805 -0.24553,-0.05371 -0.34687,-0.0127 -0.50826,0.170127 -1.02949,0.133879 -1.54411,0.200818 -2.091,0.304271 -4.20158,0.29845 -6.3037,0.430478 z m 26.21783,2.21615 c -0.89429,-0.4953 -1.90394,-0.736865 -2.88052,-0.968375 -0.099,-0.03069 -0.20796,-0.02858 -0.2741,-0.04921 -0.90461,-0.462227 -1.80499,-0.706173 -2.7612,-1.003565 -0.0659,-0.02037 -0.13176,-0.04101 -0.15451,-0.08414 -0.12145,-0.07408 -0.20003,-0.170656 -0.15902,-0.302683 0.0389,-0.241036 0.0778,-0.482071 0.14949,-0.712788 0.33841,-1.087967 0.57785,-2.206625 1.04828,-3.253581 0.25056,-0.572823 0.41249,-1.20941 0.53102,-1.823244 0.0799,-0.373062 0.19262,-0.735541 0.34872,-1.121039 0.46805,-1.155965 0.84773,-2.375959 1.11787,-3.593307 0.30109,-1.316566 0.9091,-2.573866 1.14432,-3.910806 l 0.0204,-0.06588 c 0.61331,-2.087298 1.16046,-4.194969 1.93834,-6.230937 0.17648,-0.451115 0.33046,-0.945621 0.48419,-1.440392 0.27252,-1.10834 0.64399,-2.185988 0.94932,-3.284273 l 0.0844,-0.154517 c 0.1151,-0.25347 0.23443,-0.28866 0.47546,-0.249766 2.34289,0.837406 3.44699,0.891381 7.08792,2.205037 0.6821,0.248179 1.30043,0.585259 1.89812,0.988219 0.17754,0.127265 0.34449,0.287867 0.46832,0.470958 0.43947,0.679186 0.92233,1.335617 1.23216,2.0828 0.32253,0.823384 0.41619,1.684338 0.21564,2.561961 -0.36063,1.623483 -0.98452,3.164681 -1.86214,4.591314 -0.23231,0.397669 -0.54081,0.808038 -0.95038,1.078177 -0.0966,0.07858 -0.23654,0.179652 -0.34343,0.291042 -0.28787,0.344223 -0.68713,0.581554 -1.12157,0.699558 -0.20585,0.0807 -0.41169,0.161131 -0.58473,0.252148 -0.0865,0.04524 -0.11721,0.144198 -0.0717,0.230717 0.15663,0.19341 0.32385,0.353748 0.4908,0.51435 0.45799,0.504031 0.67707,1.078177 0.80962,1.698096 0.0542,0.523081 0.18468,1.033727 0.24898,1.523735 0.0442,0.556154 -0.0767,1.060979 -0.17489,1.608931 -0.0593,0.306917 -0.14155,0.570706 -0.23363,0.867304 -0.11298,0.362744 -0.23601,0.758296 -0.28284,1.141413 -0.0572,0.416189 -0.18018,0.811742 -0.33628,1.196975 -0.23813,0.649287 -0.46594,1.265237 -0.75962,1.861079 -0.34714,0.65114 -1.0504,1.517121 -1.68646,1.934104 -1.09881,0.742686 -1.83806,0.910696 -3.14563,1.046163 -0.26167,0.02699 -0.8427,-0.08123 -1.10622,-0.163248 -0.45138,-0.176742 -0.89032,-0.277019 -1.31657,-0.301096 -0.20823,-0.02857 -0.37306,-0.0799 -0.5379,-0.131233 z m 4.11031,-16.58329 c 0.56038,0.174361 1.09828,0.305329 1.67692,0.3048 0.26168,-0.02725 0.49001,-0.06456 0.68342,-0.221456 0.47123,-0.468048 0.91943,-0.979488 1.11443,-1.605756 l 0.42836,-1.493838 c 0.26908,-0.747977 0.0376,-1.398587 -0.37941,-2.034381 -0.23733,-0.399256 -0.59188,-0.654315 -1.05357,-0.797719 -0.30692,-0.05953 -0.63659,-0.161925 -0.91282,-0.320146 -0.0886,-0.06376 -0.23071,-0.07197 -0.32967,-0.102658 -0.14208,-0.0079 -0.26141,0.02699 -0.33549,0.148696 l -0.082,0.263789 c -0.20955,0.441061 -0.21087,0.910696 -0.32173,1.382448 -0.18442,0.593461 -0.39185,1.14353 -0.56621,1.703917 0.0124,0.0762 -0.0923,0.296863 -0.0593,0.307181 -0.16404,0.527315 -0.22331,0.834232 -0.38761,1.361811 -0.24607,0.791104 -0.25638,0.824177 0.52467,1.103312 z m -4.0685,12.148873 0.4945,0.153723 c 0.44106,0.20955 0.96626,0.264583 1.5121,0.253471 0.28416,0.01614 0.54583,-0.01085 0.77205,-0.157427 0.46302,-0.325967 0.88292,-0.629444 1.12316,-1.169194 0.12303,-0.395817 0.34501,-0.760677 0.36909,-1.186921 0.0286,-0.207962 0.12303,-0.395552 0.18468,-0.59346 0.15372,-0.494507 0.27464,-0.999332 0.42863,-1.493838 0.15584,-0.385233 0.16986,-0.778669 0.10768,-1.159669 -0.0794,-0.675481 -0.28813,-1.2827 -0.92922,-1.662906 -0.65113,-0.347398 -1.33323,-0.595577 -2.07671,-0.646112 -0.25135,-0.0058 -0.32755,0.0066 -0.37677,0.280458 -0.30109,1.316567 -0.81015,2.604558 -1.20994,3.890169 -0.14366,0.461698 -0.25426,0.93345 -0.45349,1.341437 -0.21987,0.474134 -0.32015,0.912813 -0.43074,1.384565 -0.0982,0.548216 -0.10848,0.581025 0.48498,0.765704 z m 13.00612,10.71166 c -0.64479,-0.46488 -1.26153,-1.03532 -1.75366,-1.60655 -0.80063,-0.85646 -1.35308,-1.839123 -1.45679,-3.064143 l -0.002,-0.248973 c 0.25215,-0.94959 0.35111,-1.917436 0.90091,-2.754313 0.38814,-0.653785 0.69982,-1.316567 1.11681,-1.951302 0.89111,-1.356254 2.0394,-2.915179 2.66329,-4.116387 0.61569,-1.000125 1.40468,-1.886215 1.93384,-2.943225 0.35031,-0.596107 0.76729,-1.230842 1.17555,-1.789113 0.75909,-1.029494 1.43166,-2.116137 2.17196,-3.117056 0.49292,-0.750094 1.08215,-1.395677 1.80684,-1.86981 0.65775,-0.43524 1.41287,-0.641615 2.168,-0.847725 0.23918,-0.04948 0.45931,-0.07011 0.71728,-0.148432 0.44926,-0.117739 0.86148,-0.05371 1.32159,7.94e-4 1.47638,0.267758 2.73527,0.929746 3.81371,1.8034 0.8763,0.741098 1.62904,1.607608 2.14339,2.647685 0.0101,0.04789 0.0677,0.08599 0.0587,0.162455 0.2069,0.879739 0.46169,1.749425 0.3339,2.69822 -0.0815,0.690034 -0.35507,1.295136 -0.6477,1.929077 -0.59425,1.344613 -1.53485,2.461684 -2.28335,3.663686 l -0.9189,1.461823 c -0.72972,1.173162 -1.55549,2.24155 -2.295,3.366823 -0.24632,0.375179 -0.52176,0.731308 -0.7104,1.144323 -0.0939,0.268816 -0.2458,0.499797 -0.42625,0.711464 -0.39899,0.481542 -0.68236,1.038754 -1.02367,1.558131 -0.50297,0.702469 -0.90937,1.509713 -1.55628,2.117198 -0.0669,0.0389 -0.12382,0.12541 -0.16166,0.18309 -0.45403,0.81703 -1.17872,1.29117 -1.9222,1.79387 -0.51435,0.40588 -1.193,0.62098 -1.85235,0.80725 -0.19129,0.0397 -0.37359,0.003 -0.54583,0.0132 l -0.54584,0.0132 c -1.00488,0.0833 -1.95447,-0.16881 -2.74346,-0.7284 -0.49054,-0.32226 -1.00912,-0.53922 -1.48061,-0.89032 z m 2.25346,-3.807094 c 0.35692,0.399786 0.81862,0.702998 1.36525,0.814388 0.42201,0.112183 0.83343,0.05186 1.19538,-0.247385 0.14261,-0.154253 0.31406,-0.289455 0.45667,-0.443707 0.44689,-0.491331 0.91255,-1.011502 1.26286,-1.607608 0.32226,-0.490537 0.63474,-1.0287 0.98584,-1.500452 0.0378,-0.05768 0.0947,-0.144198 0.12277,-0.249767 0.10398,-0.220927 0.21775,-0.393964 0.37914,-0.577056 0.12383,-0.125412 0.23733,-0.29845 0.33232,-0.442648 0.69056,-1.240102 1.42266,-2.039673 2.11349,-3.27951 0.1614,-0.183092 0.5125,-0.654844 0.68395,-0.790046 0.2069,-0.566208 0.62574,-0.951971 0.89032,-1.480608 0.27464,-0.480484 0.71226,-0.89535 0.95779,-1.394884 0.34132,-0.519377 0.63474,-1.028964 0.97605,-1.548341 0.11377,-0.173038 0.26538,-0.403755 0.35031,-0.595842 0.22675,-0.470958 0.30004,-0.959644 0.0765,-1.436952 -0.58367,-1.37504 -2.01242,-1.652852 -3.0808,-1.032669 -0.42942,0.213519 -0.78132,0.560652 -1.05596,1.041136 -0.86121,1.499658 -1.93463,2.81887 -2.91121,4.242593 -0.41724,0.634736 -0.7956,1.336411 -1.17395,2.037821 -0.45403,0.817033 -1.01468,1.481667 -1.5076,2.23176 l -0.45508,0.692415 c -0.28416,0.432858 -0.61648,0.875771 -0.89085,1.356254 -0.41725,0.634736 -0.81439,1.36525 -1.19275,2.066925 -0.1516,0.230717 -0.2069,0.566209 -0.2532,0.825236 -0.0733,0.488685 0.0736,0.956998 0.3728,1.318947 z m 8.82967,13.596141 c -0.47466,-0.63765 -0.89059,-1.36737 -1.18771,-2.06031 -0.50536,-1.05807 -0.73581,-2.16138 -0.46567,-3.36074 l 0.0736,-0.23812 c 0.52653,-0.829467 0.91255,-1.722437 1.6891,-2.354527 0.56727,-0.50641 1.06416,-1.04457 1.65312,-1.524 1.25836,-1.02447 2.82311,-2.164821 3.7801,-3.122083 0.88874,-0.767821 1.90791,-1.375304 2.73103,-2.223558 0.51382,-0.462492 1.10279,-0.942182 1.66,-1.351227 1.03425,-0.753005 2.00316,-1.586442 3.01069,-2.317486 0.69612,-0.566737 1.45283,-1.004623 2.28653,-1.23825 0.7583,-0.216958 1.54067,-0.185737 2.32278,-0.154781 0.24289,0.02487 0.45879,0.0717 0.7284,0.07461 0.46407,0.02302 0.83767,0.208492 1.25994,0.398992 1.32715,0.700617 2.32781,1.71106 3.09272,2.869142 0.61224,0.970756 1.06891,2.023798 1.24565,3.170766 -0.005,0.04868 0.0386,0.102129 0.007,0.172509 -0.0677,0.90117 -0.0868,1.807106 -0.49477,2.673346 -0.28575,0.63342 -0.72892,1.12792 -1.19909,1.64413 -0.97181,1.10304 -2.20557,1.88462 -3.28136,2.805107 l -1.3171,1.11681 c -1.04907,0.89852 -2.15873,1.66846 -3.20278,2.51856 -0.34819,0.28337 -0.71808,0.54002 -1.02261,0.87683 -0.17039,0.22807 -0.38471,0.40243 -0.62072,0.55007 -0.52546,0.33867 -0.96387,0.78476 -1.44568,1.17713 -0.69135,0.51806 -1.32212,1.16523 -2.12222,1.5494 -0.0754,0.0169 -0.15558,0.0823 -0.20929,0.12594 -0.67918,0.64188 -1.51288,0.87551 -2.37357,1.1311 -0.61278,0.23151 -1.32451,0.2323 -2.00951,0.21114 -0.19421,-0.0198 -0.35666,-0.11007 -0.52441,-0.15187 l -0.52414,-0.15188 c -0.98345,-0.2233 -1.81292,-0.75009 -2.39659,-1.52161 -0.37042,-0.45509 -0.79957,-0.8181 -1.14327,-1.29514 z m 3.29618,-2.95063 c 0.21987,0.48868 0.56885,0.91704 1.05648,1.18798 0.36857,0.23415 0.77894,0.30056 1.21417,0.12435 0.18257,-0.10398 0.38683,-0.18124 0.56912,-0.28522 0.57415,-0.3339 1.17502,-0.6895 1.68884,-1.15226 0.45508,-0.37068 0.91519,-0.78978 1.39224,-1.13348 0.0534,-0.0436 0.13388,-0.109 0.19235,-0.20108 0.16563,-0.17939 0.32623,-0.31036 0.53552,-0.43603 0.15557,-0.0823 0.31617,-0.21299 0.45005,-0.322 1.03241,-0.9742 1.97141,-1.516057 3.00382,-2.489987 0.20928,-0.12595 0.68606,-0.46964 0.89032,-0.5469 0.36803,-0.47757 0.88371,-0.7194 1.29513,-1.14353 0.40667,-0.37544 0.94906,-0.63897 1.33377,-1.04113 0.48207,-0.39238 0.91546,-0.78978 1.39726,-1.182161 0.16061,-0.130704 0.37492,-0.305065 0.51382,-0.462756 0.35799,-0.380471 0.57521,-0.824442 0.50615,-1.346994 -0.14234,-1.486958 -1.42081,-2.182548 -2.62625,-1.913202 -0.47387,0.07408 -0.91414,0.298979 -1.3208,0.674423 -1.27318,1.170252 -2.69425,2.104496 -4.05474,3.16759 -0.58896,0.47969 -1.16126,1.03452 -1.73355,1.58935 -0.67919,0.64215 -1.41393,1.10676 -2.11005,1.67349 l -0.64268,0.52308 c -0.40163,0.32703 -0.85195,0.64903 -1.25835,1.02474 -0.58923,0.479417 -1.18798,1.056207 -1.76028,1.611037 -0.21431,0.17436 -0.36803,0.47758 -0.49001,0.71067 -0.21722,0.44398 -0.21854,0.93451 -0.0423,1.37002 z m 5.78538,21.74345 c -0.0825,-0.22701 -0.10054,-0.47783 -0.0741,-0.70776 0.0177,-0.55747 0.0352,-1.11495 0.14128,-1.63115 0.10293,-0.62548 0.32703,-1.22132 0.77206,-1.71424 0.51038,-0.5162 1.03214,-1.00012 1.43034,-1.62269 0.12673,-0.15637 0.29765,-0.2921 0.46884,-0.42783 0.82259,-0.66701 1.66608,-1.37821 2.39739,-2.19551 0.12673,-0.15637 0.28601,-0.32464 0.46884,-0.42783 0.33311,-0.19474 0.64294,-0.45456 0.86413,-0.75539 0.21219,-0.22436 0.56012,-0.27755 0.57203,-0.64902 -0.22437,-0.21246 -0.48684,-0.22701 -0.74057,-0.31856 -0.34211,-0.13255 -0.63712,-0.13547 -0.99404,-0.006 -1.16814,0.42518 -2.40374,0.76491 -3.5687,1.2991 -0.91731,0.40746 -1.87881,0.79401 -2.8403,1.18083 l -0.42175,0.15346 c -0.1741,0.0267 -0.3511,-0.0558 -0.42201,-0.25056 -0.0915,-0.15028 -0.15055,-0.31273 -0.22119,-0.5072 -0.38973,-1.07077 -0.69982,-2.02327 -1.08956,-3.09404 -0.059,-0.16219 0.003,-0.29501 0.1532,-0.38629 l 6.29417,-2.29103 c 0.42175,-0.15372 0.87577,-0.31909 1.34197,-0.45191 1.03796,-0.37782 2.06137,-0.8972 3.1234,-1.21047 1.15888,-0.34819 2.30638,-0.72919 3.38588,-1.19565 l 1.1385,-0.30427 c 0.47784,-0.10028 0.92022,-0.29818 1.3626,-0.49583 0.46302,-0.24209 0.94959,-0.4191 1.40388,-0.58446 l 7.23477,-2.63367 c 0.22701,-0.0825 0.40402,0 0.51938,0.21538 l 0.059,0.16218 c 0.32782,1.20333 0.83846,2.30347 1.26365,3.47134 0.0619,0.27146 0,0.40402 -0.21537,0.51911 -0.24765,0.127 -0.50721,0.22146 -0.76677,0.31591 -0.9734,0.35428 -1.99072,0.68792 -2.99667,1.0541 -0.36856,0.0974 -1.04986,0.34555 -1.43933,0.4871 l 0.0119,0.0325 c -0.5633,0.16828 -1.15914,0.34846 -1.71053,0.54928 l -2.88767,1.05092 c -0.0648,0.0236 -0.12964,0.0474 -0.15028,0.0915 -0.0648,0.0236 -0.0855,0.0677 -0.0945,0.14446 0,0 0.0442,0.0206 0.0561,0.0532 0.0767,0.009 0.12092,0.0294 0.18574,0.006 1.45442,0.0585 2.84665,0.24976 4.32462,0.37332 0.56938,0.0497 1.12977,0.17648 1.66661,0.23839 1.22713,0.14102 2.97047,0.38841 4.21534,0.37597 0.51329,-0.003 0.88794,0.11774 1.42478,0.17966 0.0767,0.009 0.18891,0.11483 0.28919,0.18864 0.16801,0.15928 0.21828,0.3982 0.26855,0.63712 0.45456,1.04696 0.64955,1.78435 1.01256,2.68102 0.0828,0.22702 0.13282,0.46594 0.18309,0.70485 0.0355,0.0974 -0.0913,0.25374 -0.20029,0.25665 -0.14181,0.0148 -0.29501,-0.003 -0.43656,0.0119 -1.0414,-0.13521 -2.03835,-0.25004 -3.58113,-0.34978 l -1.21841,-0.21802 c -0.1651,-0.05 -0.31856,-0.0677 -0.47202,-0.0852 -0.81994,-0.0323 -1.67851,-0.27093 -2.49846,-0.30321 -1.1594,-0.0556 -2.26853,-0.27649 -3.40704,-0.3765 -0.79957,-0.0762 -1.57533,-0.0878 -2.34209,-0.17621 -0.186,-0.006 -0.3601,0.0209 -0.49847,0.14472 l -1.1176,1.06813 c -0.59584,0.58446 -1.21497,1.10357 -1.79017,1.64359 -0.15029,0.0915 -0.25639,0.20373 -0.37439,0.28337 -0.34211,0.27146 -0.71676,0.55483 -1.04696,0.85884 -0.75485,0.75221 -1.59834,1.46341 -2.40929,2.1627 -0.81968,0.77629 -1.65127,1.51977 -2.42676,2.31643 -0.36274,0.31564 -0.62521,0.70511 -0.91996,1.10648 -0.20055,0.25665 -0.61012,1.25095 -0.53631,1.95871 -0.0177,0.15346 0.10055,0.47784 -0.009,0.48075 -0.32729,0.009 -0.95594,-0.60722 -1.12712,-0.8755 -0.4662,-0.67549 -0.81439,-1.43034 -0.98875,-2.21219 z m 2.15556,9.37155 c -0.13388,-0.81836 -0.27199,-1.67111 -0.26908,-2.50614 0.0188,-0.41963 0.0376,-0.83926 0.19738,-1.24116 0.0862,-0.14949 0.10398,-0.29077 0.0873,-0.42783 0.0624,-0.63368 0.23998,-1.17687 0.48604,-1.72826 0.0603,-0.077 0.12065,-0.15372 0.14658,-0.22648 0.11721,-0.46646 0.42677,-0.78211 0.8091,-1.07183 0.64399,-0.42598 1.28375,-0.88609 2.05131,-1.15305 0.60034,-0.21167 1.24328,-0.35931 1.92458,-0.47652 0.67707,-0.15187 1.40097,-0.20478 2.12513,-0.2577 0.30824,-0.0373 0.38524,0.0228 0.42254,0.33126 0.0635,0.23574 0.12674,0.47175 0.12145,0.7157 0.12885,1.06256 0.36459,2.14683 0.39052,3.22183 -0.0135,0.17568 -0.10372,0.29077 -0.27517,0.31168 -0.33866,0.0757 -0.71966,0.0873 -1.05833,0.16298 -0.57864,0.10504 -1.18295,0.28257 -1.75736,0.42175 -0.10292,0.0124 -0.23575,0.0632 -0.33444,0.11006 -0.82364,0.37809 -1.22872,1.05304 -1.1549,1.94839 0.007,0.34687 0.0445,0.65538 0.21907,0.94721 0.44239,0.78105 1.21206,1.10517 2.09074,0.89429 1.38457,-0.34157 2.6289,-0.97922 3.56262,-2.17064 l 0.20663,-0.30321 c 1.06151,-0.99827 1.8923,-2.17699 2.75749,-3.35994 l 0.2712,-0.34608 c 0.64902,-0.66992 1.26391,-1.33562 1.95157,-1.97538 0.0905,-0.11536 0.2151,-0.23468 0.34369,-0.31988 0.82365,-0.37809 1.58829,-0.95753 2.44607,-1.33985 1.12792,-0.44979 2.31934,-0.66357 3.53563,-0.67204 0.381,-0.0114 0.76227,-0.0228 1.15173,0.0344 0.80486,0.0415 1.54041,0.36989 2.26748,0.62945 l 0.22225,0.11218 c 0.90567,0.58579 1.72508,1.32107 2.23097,2.33786 0.13176,0.22754 0.23362,0.49345 0.29686,0.72919 0.2712,0.80195 0.37491,1.65867 0.54319,2.47306 -0.0757,0.8091 0.0198,1.59729 -0.12462,2.41485 -0.0923,0.67205 -0.33443,1.25783 -0.67918,1.85606 -0.17251,0.29898 -0.41752,0.57229 -0.69295,0.8837 -0.73528,0.81968 -1.79043,1.29514 -2.96942,1.61211 -0.74162,0.19421 -1.67534,0.23786 -2.45427,0.12356 -1.09987,-0.17965 -1.80816,-0.8591 -2.13836,-1.8624 -0.40323,-1.02923 -0.24951,-2.05634 0.36644,-3.00064 0.0863,-0.14949 0.18918,-0.16193 0.27438,-0.0331 0.4818,0.53287 1.08532,0.63341 1.74069,0.58896 0.58261,-0.0706 1.12263,-0.20585 1.60364,-0.5424 0.38629,-0.25532 0.58896,-0.59293 0.56912,-1.04272 0.0696,-0.28654 0.0114,-0.7665 -0.0476,-0.96785 -0.13414,-0.81862 -0.59108,-1.14564 -1.48537,-1.35043 -0.43206,-0.12144 -0.87762,-0.0675 -1.33138,-0.082 -0.17145,0.0209 -0.33867,0.0759 -0.53605,0.16933 -0.10292,0.0124 -0.19738,0.0934 -0.29607,0.14023 -0.51937,0.30639 -1.03452,0.64717 -1.55363,0.95356 l -1.44171,1.87881 c -0.38338,0.56806 -0.77497,1.06759 -1.23508,1.57559 -0.21907,0.20056 -0.42995,0.46937 -0.64082,0.73845 -0.41751,0.5723 -0.80909,1.07183 -1.38033,1.52374 -0.0945,0.081 -0.22331,0.16616 -0.31353,0.28125 -0.76147,0.89218 -1.74387,1.39383 -2.71833,1.96427 -1.3044,0.71437 -2.73579,0.95752 -4.15343,1.02499 -0.93371,0.0437 -1.86214,-0.15689 -2.76066,-0.39581 -0.32517,-0.0998 -0.64611,-0.1651 -0.93689,-0.26882 -0.59002,-0.27649 -1.06363,-0.74057 -1.37398,-1.29434 -0.43842,-0.74666 -0.90673,-1.45495 -1.14353,-2.26113 -0.0511,-0.13282 -0.136,-0.26167 -0.1569,-0.43312 z"
       id="path1"
       style="clip-rule:evenodd;fill-rule:evenodd;stroke-width:0.264583;stroke-linejoin:round;stroke-miterlimit:2" />
  </g>
</svg>
