<?xml version="1.0" encoding="UTF-8" standalone="no"?>
<!-- Created with Inkscape (http://www.inkscape.org/) -->

<svg
   width="253.18042mm"
   height="106.27264mm"
   viewBox="0 0 253.18042 106.27264"
   version="1.1"
   id="svg1"
   xmlns="http://www.w3.org/2000/svg"
   xmlns:svg="http://www.w3.org/2000/svg">
  <defs
     id="defs1" />
  <g
     id="layer1"
     transform="translate(26.987507,-84.666664)">
    <path
       id="path3"
       d="m 97.664935,190.72847 c -4.898495,-3.33931 -3.027891,-9.59697 -5.154347,-6.17485 -1.634596,2.63049 -2.274359,6.94743 -7.286096,1.62851 -1.072092,-1.13797 -1.830388,-3.80471 -3.365765,-1.04854 -2.7432,4.92416 -5.61631,3.87403 -7.026275,-1.57163 -1.351227,-5.21917 -2.388393,0.14208 -2.999316,1.11443 -4.189677,6.66803 -7.497763,-1.54649 -7.73774,-2.14233 -1.412346,-3.50653 -2.0193,4.8633 -7.806531,2.71039 -0.190235,-0.0709 -2.445014,-2.37279 -2.564871,-2.43443 -0.255323,-0.1315 -0.307975,0.30956 -3.552031,-0.50377 -1.673754,-0.41963 -2.936346,-3.46551 -4.735777,-2.64239 -0.423598,0.19394 -1.445154,1.83409 -7.335573,0.25691 -4.025371,-1.07765 -3.058583,-6.61512 -2.951162,-7.23054 0.683419,-3.91398 -5.987256,7.96158 -12.068969,0.44821 -3.455987,-4.26985 3.113881,-12.03934 -0.0852,-10.1608 -1.499923,0.88107 -7.802033,7.06464 -14.2538974,4.7842 -4.2963041,-1.51844 -0.3548062,-2.90327 0.8305271,-7.31626 0.6881813,-2.56249 -1.0144125,-1.68037 -3.5689645,-0.97208 -7.5522666,2.09471 -13.3342061,-1.62586 -7.1982541,-6.61776 3.2853312,-2.67308 3.7025791,-2.51777 3.5978041,-3.47107 -0.1021291,-0.92815 -0.7911041,0.19791 -11.5297477,-1.81133 -0.2174875,-0.0408 -3.3840205,-0.63342 -1.2752915,-2.45375 4.6585185,-4.02193 -4.199731,-1.69757 -5.271029,-4.46802 -0.502709,-1.29937 2.318014,-2.35929 2.585243,-2.45983 0.684477,-0.25717 1.522413,-0.21934 2.081742,-0.69003 0.39026,-0.32835 0.07938,-1.12792 0.469635,-1.45627 -6.045464,-1.05965 -6.704541,-0.66913 -6.589183,-1.73831 0.04657,-0.43286 2.026444,-2.13281 2.121429,-2.33548 0.626534,-1.33403 -11.932443,-0.70564 -11.982714,-6.4434 -0.0381,-4.34049 12.339902,-2.59847 13.518091,-4.25264 0.600869,-0.8435 -5.298281,-1.92167 -7.525543,-5.68563 -2.343415,-3.96002 0.703791,-3.52611 5.253302,-4.16031 -7.658894,-5.0763 -11.088158,-13.096878 -2.967567,-9.92267 6.985265,2.73023 8.050477,3.52663 9.0434584,3.80709 0.8839729,0.2495 1.8504958,0.09 2.7344687,0.33946 C -14.79833,97.874269 -18.456723,93.906578 -16.958917,91.992053 c 0.227012,-0.289984 2.488671,-0.270669 6.096,1.86981 11.24479134,6.672267 11.56334967,5.980377 12.3843517,6.263747 -1.30254369,-1.938868 -8.2528832,-8.257118 -7.3794936,-12.501299 0.2013479,-0.978694 1.5422562,0.176213 1.643327,0.262996 0.9805459,0.844814 8.5486874,7.362825 13.0124728,9.615752 4.9797231,2.513281 4.9318331,2.505871 9.7374601,5.389031 12.948973,7.7679 19.352683,9.69566 21.152908,10.23752 33.248864,10.00893 35.158891,10.27801 40.523848,15.68556 4.353189,4.38785 1.241954,-5.88777 6.837891,-16.85925 11.0744,-21.712234 28.781112,-7.44484 29.243342,-7.42447 1.8071,0.0799 3.96452,-0.92313 8.32697,2.34924 1.85605,1.39223 1.24804,1.76847 1.09167,1.83753 -13.21938,5.83141 -14.05308,7.08025 -13.58159,16.70843 0.18997,3.87959 0.43629,4.1828 3.97324,5.81846 2.17382,1.00515 2.0156,-0.46911 4.16058,-1.12078 2.60905,-0.79269 16.40522,-11.3194 29.89341,-13.58477 6.07299,-1.0197 7.75626,-0.23786 26.12602,-9.87689 19.41513,-10.187782 29.68651,-27.289125 30.60779,-20.408636 0.71094,5.311246 -4.21375,10.079302 -0.39581,8.777817 3.10938,-1.059657 2.989,-1.2954 6.11452,-2.334948 13.77844,-4.582054 -2.42676,8.691827 -0.11827,9.346937 1.46182,0.41486 11.7131,-3.40175 12.41663,-1.57083 0.87789,2.28494 -1.93119,6.77942 -4.96914,9.0678 -3.02524,2.27885 -2.94296,2.57519 -2.69478,2.75828 0.003,0.003 6.10182,1.77271 1.9013,4.7924 -4.68181,3.36523 -9.76392,5.0546 -6.5704,5.37501 0.69162,0.0693 0.63817,0.003 8.68733,0.11244 5.20382,0.0714 4.40346,2.35718 4.93024,3.10727 -0.0556,0.0421 -2.0066,2.31484 -8.80745,5.53614 -0.2286,0.79508 0.0413,1.67958 -0.18732,2.47439 -0.32888,1.14352 -7.11438,2.44316 -6.53759,2.69292 1.15729,0.5006 9.05034,1.51739 4.10289,4.20953 -6.28491,3.41973 -10.94713,1.28031 -9.74619,3.42688 0.72125,1.28931 10.41506,3.29565 1.23613,5.39406 -5.8883,1.3462 -6.07165,-0.0222 -11.85862,1.6338 -2.65271,0.75909 10.72727,8.77888 9.94357,11.04794 -0.78502,2.2733 -8.12562,0.81069 -12.22137,-0.84349 -0.14287,-0.0577 -0.14155,0.005 -1.92405,0.0646 2.65748,5.3168 4.68022,8.67622 2.00104,9.75783 -3.64331,1.47082 -14.35735,-9.76497 -14.98229,-8.14017 -0.0423,0.10954 1.12395,11.16092 -0.93239,12.03087 -0.65035,0.27517 -4.99454,0.11933 -9.32471,-2.85935 -0.25506,-0.17542 -3.63564,-2.50084 -3.72454,-1.04987 -0.16008,2.61408 0.25823,2.57598 0.003,5.2033 -0.78978,8.10445 -4.7318,0.94138 -6.00551,1.30889 -1.49463,0.43154 -0.62547,4.08411 -3.90737,2.12513 -1.70074,-1.0152 -3.19643,2.17991 -5.06571,3.21998 -1.8841,1.04828 -3.51896,-1.98728 -5.30966,0.24104 -4.49924,5.59938 -5.84676,1.53617 -7.74938,1.88436 -1.52638,0.2794 -1.63962,4.58073 -5.83882,0.68368 -1.53168,-1.42187 -1.55284,-1.59808 -1.86849,-1.39858 -0.2503,0.15795 -3.27634,3.54885 -7.1718,2.68763 -0.20346,-0.045 -1.29619,-0.28654 -2.1156,-1.52267 -0.18601,-0.28073 -0.13891,-0.2794 -1.87458,-3.76873 -2.13598,5.88275 -2.39686,8.91699 -7.8015,5.77374 -2.8239,-1.64253 -3.28851,-5.64832 -4.08861,-2.45586 -0.82497,3.29036 -0.21352,3.80735 -3.09165,5.62583 -0.0225,0.0143 -2.945614,0.55827 -3.678774,0.0585 z M 34.462328,159.30946 c 0.708554,0.45535 1.509977,0.59743 2.351617,0.36513 0.572293,-0.15002 0.292364,-0.22887 0.182297,-0.43207 -0.325172,-0.52864 -0.343958,-1.31948 -0.300037,-1.88833 0.05821,-0.60193 0.196585,-1.20888 0.354277,-1.76874 0.357717,-1.21946 0.487892,-2.45666 0.812271,-3.69014 0.287337,-1.05331 0.574939,-2.10662 0.895614,-3.1459 l 1.26418,-4.94797 c 0.333375,-1.34726 0.713581,-2.71383 0.947208,-4.1029 0.07197,-0.63526 0.243681,-1.22846 0.396346,-1.86875 0.152664,-0.64029 0.371739,-1.2528 0.524139,-1.89309 0.231511,-0.92022 0.448998,-1.80737 0.647171,-2.74188 0.208492,-0.77311 0.403225,-1.51342 0.498211,-2.29552 0.01746,-0.22755 -0.0926,-0.43048 -0.311415,-0.56171 l -0.598223,-0.25242 c -1.102254,-0.54292 -2.202656,-0.81121 -3.30491,-1.3544 -0.384704,-0.20135 -0.883444,-0.41169 -1.301486,-0.62706 -0.199496,-0.0841 -0.455083,-0.0352 -0.591608,0.10292 -0.357188,0.47572 -0.700352,0.91837 -1.010179,1.37504 -0.525463,0.87445 -1.031611,1.79652 -1.590411,2.65721 -0.337873,0.52308 -0.656695,1.09326 -0.994833,1.61634 -0.667014,0.93239 -1.353344,1.81742 -1.987285,2.76384 -0.385234,0.54213 -0.784754,1.1176 -1.084263,1.7354 -0.318558,0.57018 -0.670719,1.12633 -1.022614,1.68275 -0.296069,0.42333 -0.591873,0.84667 -0.840582,1.25069 -0.46937,0.74162 -0.891381,1.4642 -1.413404,2.14471 -0.225689,0.25717 -0.451643,0.51408 -0.591873,0.84666 -0.336285,0.79772 -0.877358,1.43087 -1.332706,2.13943 -0.896673,1.3835 -1.879071,2.69213 -2.794794,4.02854 -0.357187,0.47572 -0.779462,1.1983 -1.103312,1.68804 -0.103452,0.15214 -0.0598,0.32729 0.07329,0.38312 l 0.265907,0.11218 c 0.850371,0.39767 1.747837,0.77603 2.597943,1.17369 0.332582,0.14023 0.711994,0.26115 1.044575,0.40138 0.166159,0.0701 0.307975,0.0124 0.430478,-0.0926 l 0.27305,-0.27622 c 0.310091,-0.45667 0.718079,-1.14591 1.061243,-1.5883 l 1.267884,-1.89282 c 0.07541,-0.0857 0.2032,-0.11007 0.350043,-0.0873 0.113771,0.009 0.213519,0.0508 0.34634,0.10689 0.964142,0.4064 1.93331,0.8935 2.986617,1.18084 0.7874,0.17542 0.99351,0.61489 0.785018,1.38827 -0.01402,0.0331 0.01905,0.0471 0.005,0.0804 -0.378354,0.89747 -0.4191,2.0156 -0.536839,2.94481 -0.07567,0.82947 0.340519,1.51369 0.756444,2.19816 0.03863,0.0945 0.105039,0.12251 0.190764,0.19791 0.456406,0.30983 0.899054,0.65299 1.402821,0.94377 z m -3.386402,-12.85981 c -0.265906,-0.11218 -0.257175,-0.22595 -0.09763,-0.51091 0.614627,-0.99377 1.064683,-1.78276 1.679575,-2.77627 0,0 0.11721,-0.18547 0.150548,-0.17145 0.534193,-0.98848 1.08241,-2.01004 1.649677,-2.9845 0.248708,-0.40402 0.578114,-0.81333 0.840581,-1.25069 0.310091,-0.4564 0.600869,-0.96043 0.910696,-1.41684 0.192616,-0.2712 0.343164,-0.44265 0.502708,-0.72787 0.06112,-0.0524 0.136525,-0.13811 0.22225,-0.0627 -0.01402,0.0331 0.04366,0.17489 0.02963,0.20823 -0.28231,1.13374 -0.588962,2.13969 -0.8382,3.28745 -0.299773,1.36128 -0.666221,2.69452 -1.066006,4.01373 -0.320675,1.03928 -0.541602,2.12063 -0.829204,3.17394 -0.106892,0.34634 -0.262731,0.43736 -0.547952,0.27781 -0.218546,-0.13123 -0.432065,-0.18203 -0.664633,-0.28019 -0.773378,-0.20876 -1.310482,-0.51329 -1.942042,-0.77973 z M 1.5119137,142.21288 c 1.0673292,0.4527 2.0661313,1.03267 3.1138812,1.59808 l 0.41275,0.22278 c 0.2391834,0.0881 0.4347105,0.0296 0.5230813,-0.20981 l 0.051329,-0.0952 c 0.6267979,-1.46527 1.4832541,-3.05277 2.268802,-4.43257 0.3399896,-0.5543 0.7437437,-1.07447 0.9054042,-1.60205 1.0448395,-1.93648 2.0068646,-3.79492 3.0003756,-5.63642 0.171185,-0.3175 0.435768,-1.03558 0.829204,-1.23322 0.197643,0.3937 -0.306123,1.02367 -0.382323,1.3925 -0.105304,0.27093 -0.129911,0.54478 -0.266965,0.79878 -0.227806,0.57388 -0.360098,1.19909 -0.556154,1.79043 -0.271992,0.95991 -0.5588,1.87087 -0.862542,2.81385 -0.443177,1.27741 -0.9501186,2.52068 -1.3935602,3.79809 -0.1762125,0.47863 -0.3037417,0.94271 -0.5117042,1.40441 -0.1397,0.3347 -0.2304521,0.65458 -0.3209396,0.97446 -0.1251479,0.38365 -0.2328333,0.73528 -0.3087687,1.10411 -0.1420813,0.41539 -0.066675,0.57917 0.282575,0.76755 0.1733021,0.13441 0.3638021,0.23733 0.5543021,0.33999 0.6985,0.37703 1.3798026,0.78555 2.0465526,1.14538 0.1905,0.10266 0.34925,0.18839 0.525198,0.24236 0.366183,0.15663 0.495829,0.14446 0.781843,-0.23389 0.489479,-0.67892 1.010444,-1.34064 1.499659,-2.0193 0.251883,-0.31485 0.518318,-0.58103 0.721518,-0.88133 0.589492,-0.78872 1.210734,-1.56025 1.783027,-2.31722 0.675217,-0.94747 1.413934,-1.86055 2.15265,-2.77363 0.706967,-0.93027 1.651265,-2.22435 2.343415,-3.20357 0.102923,-0.1905 0.269081,-0.34687 0.481806,-0.43709 0,0 0.04868,-0.0146 0.08043,0.003 0.03175,0.0172 0.02937,0.0976 0.02937,0.0976 -0.102923,0.1905 -0.173831,0.39819 -0.276489,0.58869 l -1.744927,3.15754 c -0.839523,1.55575 -1.647032,3.12843 -2.486555,4.68418 -0.222514,0.41275 -0.445293,0.8255 -0.572822,1.28958 -0.105305,0.2712 -0.27649,0.58844 -0.477044,0.8083 -0.251884,0.31486 -0.425715,0.71306 -0.646113,1.04511 -0.32041,0.44212 -0.372268,1.06997 -0.773377,1.50945 -0.03413,0.0635 0.02434,0.25876 0.102394,0.3421 0.109802,0.10028 0.219869,0.20056 0.378354,0.28602 l 1.30175,0.70247 c 0.5715,0.30824 1.208881,0.57044 1.74625,0.94218 0.03175,0.0172 0.09525,0.0513 0.175683,0.054 0.144198,0.0368 0.322528,0.0101 0.440003,-0.13176 0.100277,-0.1098 0.168804,-0.2368 0.254529,-0.39555 0.153987,-0.28575 0.293687,-0.62019 0.479689,-0.88874 1.27979,-2.21985 2.559315,-4.43971 3.536421,-6.78206 l 0.08546,-0.15875 c 0.765969,-1.26736 1.341438,-2.63763 2.107142,-3.90499 0.545836,-0.9353 0.996156,-1.92193 1.461294,-2.85988 0.75856,-1.55813 1.707885,-3.01334 2.53021,-4.53734 0.137054,-0.254 0.305859,-0.4908 0.379413,-0.77893 0.215635,-0.70353 0.685271,-1.27 1.027906,-1.905 l 1.336146,-2.47624 c 0.154252,-0.28575 0.09578,-0.48127 -0.173038,-0.66728 l -0.475985,-0.25691 c -0.715698,-0.34501 -1.414198,-0.72204 -2.0955,-1.13056 -0.681302,-0.40878 -1.445683,-0.73925 -2.175933,-1.13321 -0.3175,-0.17119 -0.46408,-0.12753 -0.747713,0.17039 -0.08334,0.078 -0.166423,0.1561 -0.23495,0.2831 -0.638439,0.80328 -1.230312,1.6727 -1.964002,2.42465 -0.46699,0.48577 -0.729192,1.12315 -1.147233,1.59438 -0.736336,0.83264 -1.330854,1.78249 -1.971675,2.66647 l -1.964002,2.42437 c -0.23495,0.28311 -0.501386,0.54928 -0.753269,0.86413 l -2.839773,3.59172 c -0.06615,0.0463 -0.115094,0.0611 -0.161396,-0.005 -0.01455,-0.0489 -0.0463,-0.0659 -0.0291,-0.0976 -0.01482,-0.0489 -0.01217,-0.12964 -0.0098,-0.21034 l 1.859492,-5.80099 c 0.443442,-1.27767 0.759883,-2.62361 1.298311,-3.84969 0.452966,-1.06733 0.905933,-2.13466 1.26365,-3.25331 0.105304,-0.27094 0.16166,-0.52758 0.266964,-0.79878 0.430742,-0.87418 0.6223,-1.83674 0.877094,-2.7649 0.05662,-0.25664 0.0127,-0.40322 -0.175419,-0.58658 -0.373327,-0.44741 -0.915458,-0.65802 -1.391708,-0.91493 -0.4445,-0.23997 -0.923396,-0.41619 -1.3335,-0.71966 -0.378354,-0.28602 -0.808302,-0.47705 -1.255184,-0.63633 -0.334697,-0.13943 -0.620447,-0.29368 -0.906197,-0.44794 -0.441855,-0.32041 -0.637382,-0.26193 -0.909109,0.16537 l -0.08546,0.15875 c -0.428361,0.79375 -0.680773,1.64147 -1.250686,2.31775 -0.0172,0.0318 -0.0024,0.0804 -0.01958,0.11218 -0.274108,0.508 -0.533664,1.06495 -0.776023,1.59015 -0.467518,1.01838 -1.047485,2.01718 -1.642004,2.96703 -0.594519,0.94986 -1.0448396,1.93649 -1.5758583,2.92074 -1.1453812,2.04655 -2.2759458,4.14179 -3.421327,6.18834 -0.1198563,0.22225 -0.2079625,0.4617 -0.3913188,0.64955 -0.4524375,0.53472 -0.7781396,1.13797 -1.0083271,1.79255 -0.056356,0.25638 -0.1762125,0.47863 -0.3595687,0.66675 -0.051594,0.0953 -0.1518708,0.20506 -0.17145,0.3175 -0.6069542,1.35308 -1.3438187,2.71807 -2.0777729,4.00262 -0.2055812,0.381 -0.3254375,0.60325 -0.4135437,0.8427 -0.1201209,0.22225 -0.061648,0.41777 0.192352,0.55483 z M 141.14841,165.70867 c 0.60378,-0.11403 1.13745,-0.35904 1.73223,-0.508 0.98875,-0.21034 1.85473,-0.76173 2.5019,-1.59305 l 0.37624,-0.42889 c 0.1135,-0.13997 0.27119,-0.25374 0.37597,-0.42889 0.32358,-0.63871 0.63844,-1.3126 0.69056,-1.99496 0.1397,-0.92763 0.28813,-1.82007 -0.0182,-2.74743 -0.0175,-0.0699 -0.0439,-0.17489 -0.0262,-0.25374 -0.009,-0.92736 -0.34184,-1.81107 -0.52599,-2.69452 -0.15769,-0.62997 -0.38523,-1.24248 -0.47307,-1.88992 -0.0349,-0.28866 -0.10504,-0.56858 -0.24501,-0.83105 -0.18388,-0.43736 -0.26273,-0.90117 -0.37677,-1.35599 -0.34157,-1.36472 -0.57837,-2.7559 -0.96361,-4.14682 l -0.47307,-1.74095 c -0.39423,-1.42611 -0.58711,-2.93979 -1.19989,-4.34817 -0.28019,-0.67363 -0.55165,-1.31233 -1.0242,-1.86346 -0.63897,-0.76967 -1.48775,-1.1893 -2.31034,-1.65285 -0.0526,-0.0611 -0.1225,-0.0437 -0.16643,-0.0699 -1.16363,-0.34105 -2.36246,-0.37571 -3.55229,-0.22648 -1.43484,0.21034 -2.83448,0.70961 -4.08543,1.65497 -0.36751,0.31485 -0.70856,0.58631 -0.93583,1.0152 -0.12251,0.25374 -0.26247,0.43736 -0.3937,0.65617 -0.37598,0.72628 -0.75195,1.45256 -0.88292,2.26642 -0.14843,0.89244 -0.0693,1.80234 0.15822,2.71224 0.24554,1.27741 0.60458,2.56329 0.85884,3.87562 0.14023,0.70882 0.33285,1.47876 0.54293,2.16985 0.43788,1.15464 0.56065,2.38839 0.89349,3.56949 0.48181,1.3298 0.86731,3.31576 1.279,4.96041 0.19262,0.76994 0.48181,1.47849 0.70935,2.2397 0.254,1.01494 0.92789,1.77588 1.47955,2.64186 l 0.19261,0.17489 c 1.01495,0.78714 2.16138,1.05807 3.38614,1.04908 0.7874,0.0259 1.66238,-0.0444 2.47597,-0.21088 z m -1.33112,-4.42674 c -0.49001,-0.0262 -0.95382,-0.24474 -1.27767,-0.64717 -0.16616,-0.21855 -0.38497,-0.49848 -0.45508,-0.77841 -0.27147,-0.7874 -0.55166,-1.60972 -0.74454,-2.37966 -0.17515,-0.55113 -0.28019,-1.11998 -0.41169,-1.64491 l -0.21035,-0.83979 c -0.22754,-0.9099 -0.34157,-1.81107 -0.64823,-2.73844 -0.27146,-0.7874 -0.54292,-1.57453 -0.73554,-2.34447 -0.40296,-1.75869 -0.65722,-3.51711 -1.20041,-5.2406 -0.17516,-0.55113 -0.19262,-1.06733 -0.0529,-1.54861 0.27967,-1.25995 1.50442,-2.16165 2.97445,-1.63698 0.52493,0.1659 0.84878,0.56833 1.05013,1.0758 0.0876,0.20135 0.15769,0.48128 0.21034,0.69109 0.15769,0.62997 0.34158,1.21603 0.49927,1.846 0.21008,0.54239 0.21908,1.17237 0.39423,1.72349 0.21881,0.57733 0.21908,1.17237 0.508,1.73223 -0.0175,0.22754 0.0963,0.83132 0.12277,1.08506 0.46408,1.40838 0.56065,2.53709 1.02473,3.94546 0.0439,0.17516 0.0966,0.38497 0.1053,0.56886 0.0262,0.25373 0.0789,0.46355 0.17516,0.69982 0.0614,0.0963 0.0876,0.20109 0.10504,0.2712 0.11403,0.60378 0.30665,1.22476 0.45561,1.8198 0.21008,0.6911 0.28046,1.41711 0.34184,2.10847 0.0175,0.21881 0,0.44609 0.0177,0.6649 -0.0262,0.49 -0.27094,0.84878 -0.6559,1.09378 -0.47229,0.34158 -1.03241,0.48155 -1.59227,0.47308 z m 54.64943,-17.0307 c 0.15769,-0.0871 0.24923,-0.22013 0.35798,-0.32147 0.68818,-0.54478 1.19089,-1.27582 1.74281,-1.99284 0.41486,-0.51753 0.67918,-1.15808 0.7157,-1.8378 -0.0132,-0.32252 -0.0754,-0.65907 -0.1061,-1.01282 -0.12039,-0.96388 -0.28972,-1.94204 -0.69744,-2.82946 -0.62045,-1.34699 -1.41605,-2.63842 -2.61911,-3.62241 -0.93372,-0.72046 -1.80446,-1.47584 -2.96678,-1.86425 -0.14711,-0.0423 -0.27993,-0.13388 -0.39555,-0.19368 -0.66119,-0.3765 -1.29857,-0.56012 -2.01639,-0.74056 -0.34316,-0.099 -0.68633,-0.19791 -0.96626,-0.33179 -0.67204,-0.24686 -1.30942,-0.43074 -2.00977,-0.57944 l -2.38469,-0.66119 c -0.50006,-0.38312 -1.03188,-0.74877 -1.53194,-1.13189 -0.0839,-0.0773 -0.19923,-0.13705 -0.25162,-0.23178 -0.16774,-0.15451 -0.28654,-0.29501 -0.37385,-0.45296 -0.16352,-0.4453 -0.39027,-0.85593 -0.44186,-1.32213 -0.15187,-0.94641 -0.0138,-1.51712 0.72655,-1.96744 0.17198,-0.13599 0.61409,-0.3802 0.91916,-0.42518 0.42783,-0.19526 0.83423,-0.13097 1.23296,0.14314 0.51435,0.33417 0.85645,0.8046 1.15305,1.34143 0.29977,0.61728 0.43842,1.24143 0.11086,1.91691 -0.0913,0.13282 -0.0389,0.22754 0.1397,0.25241 1.1557,0.22702 2.21113,-0.0262 3.05038,-0.81941 0.8427,-0.71279 1.22344,-1.66502 0.96679,-2.80088 -0.1942,-0.79931 -0.60219,-1.68672 -1.08056,-2.32913 -0.76835,-1.01785 -1.64227,-1.85393 -2.72415,-2.24552 -0.40957,-0.14472 -0.7702,-0.27516 -1.12739,-0.32517 -0.71464,-0.0998 -1.37689,-0.10504 -2.06401,0.0685 -0.84826,0.18018 -1.57454,0.58129 -2.38813,0.8247 -0.72284,0.48181 -1.51236,0.91784 -2.18308,1.49437 -0.20346,0.15372 -0.42121,0.35639 -0.59002,0.57335 -0.78687,0.88794 -1.17845,1.96983 -1.39144,3.07631 l -0.0217,0.2593 c 0.0331,0.80592 0.003,1.64703 0.27781,2.44289 0.0974,0.39979 0.25744,0.76465 0.41778,1.12924 0.48419,1.17502 1.15782,2.24526 2.03518,3.16204 0.70617,0.68157 1.56686,1.19512 2.25557,1.84494 0.13282,0.0915 0.29739,0.16536 0.4445,0.20796 0.889,0.4154 1.77456,0.75063 2.67785,1.11707 l 0.44106,0.12727 c 1.48484,0.37491 2.95195,0.71834 4.33467,1.35599 l 0.37465,0.0815 c 1.5195,0.43815 2.6244,1.39382 3.49752,2.60138 0.54822,0.76862 0.53578,1.64121 -0.0479,2.37543 -0.21431,0.28337 -0.49847,0.44027 -0.83185,0.58314 -0.8382,0.42201 -1.651,0.29395 -2.33971,-0.35613 -0.0839,-0.0773 -0.1852,-0.186 -0.23759,-0.28072 -0.35957,-0.50191 -0.76835,-1.01812 -1.09644,-1.53749 -0.20584,-0.29819 -0.36618,-0.66305 -0.57229,-0.96123 -0.0873,-0.15796 -0.23416,-0.20029 -0.40957,-0.14473 -1.03135,0.44582 -1.98941,1.09881 -2.96836,1.63962 -0.23839,0.0905 -0.44186,0.24421 -0.64559,0.39794 -0.28416,0.15689 -0.31247,0.25505 -0.15557,0.53922 0.33469,0.6805 0.66966,1.36101 1.08161,1.95765 0.38047,0.6141 0.77497,1.17925 1.21523,1.67799 0.55907,0.63896 1.25519,1.0787 1.91982,1.53564 0.43048,0.25691 0.85752,0.43312 1.3552,0.36433 0.0807,-0.003 0.17859,0.0249 0.27675,0.0532 0.6305,0.0225 1.22635,-0.018 1.86452,-0.20585 0.12621,-0.0696 0.27014,-0.10795 0.44873,-0.0828 0.45191,-0.003 0.86572,-0.1487 1.27953,-0.29475 0.81015,-0.32385 1.58221,-0.79163 2.32278,-1.24195 z m -71.52693,24.7695 c 0.17859,-0.0249 0.35718,-0.05 0.56647,-0.11589 0.41381,-0.16748 0.87313,-0.26829 1.37821,-0.30295 0.28575,-0.0402 0.88318,-0.19685 1.11813,-0.33919 1.17502,-0.71147 1.79864,-1.19989 2.50534,-2.3921 0.41487,-0.6776 0.69295,-1.80949 0.73052,-2.57969 0.0116,-0.69374 -0.0479,-1.37769 -0.11245,-2.09709 -0.0246,-0.43365 -0.0849,-0.86254 -0.21643,-1.28111 -0.12673,-0.38285 -0.18706,-0.81148 -0.24209,-1.20465 -0.0452,-0.32147 -0.0855,-0.60722 -0.16643,-0.92366 -0.1516,-0.56144 -0.26273,-1.09246 -0.55218,-1.59808 -0.27967,-0.43445 -0.63077,-0.85857 -0.91546,-1.32874 -0.40164,-0.52626 -0.86492,-0.97128 -1.52241,-1.24328 -0.2294,-0.077 -0.45879,-0.15398 -0.69321,-0.2667 -0.0815,-0.0614 -0.0966,-0.16854 -0.0352,-0.25003 0.12277,-0.16298 0.28125,-0.33099 0.44,-0.499 0.35772,-0.30533 0.62918,-0.70776 0.74745,-1.16152 0.0513,-0.15293 0.13838,-0.31089 0.195,-0.4281 0.26617,-0.43815 0.37465,-0.96335 0.41645,-1.44277 0.19288,-1.73937 0.0947,-3.47424 -0.28892,-5.1689 -0.20214,-0.91863 -0.67469,-1.69016 -1.34673,-2.32437 -0.62627,-0.56779 -1.37531,-0.97234 -2.09339,-1.4179 -0.1987,-0.11774 -0.42809,-0.195 -0.65272,-0.23627 -0.74454,-0.11404 -1.47902,-0.15637 -2.23414,-0.0868 -4.02617,0.38364 -5.0935,0.82497 -7.68086,1.07923 -0.245,0.0707 -0.3421,0.15716 -0.33761,0.44794 l -0.0106,0.18362 c 0.20135,1.17396 0.33126,2.35797 0.56833,3.52663 0.0751,0.53605 0.15054,1.07183 0.18494,1.57692 0.1733,2.27065 0.5969,4.50638 0.94879,6.7519 l 0.0101,0.0714 c 0.37438,1.36816 0.36063,2.82707 0.66357,4.20529 0.28787,1.27106 0.47361,2.59291 0.54716,3.89387 0.0243,0.43392 0.0796,0.82682 0.17066,1.2147 0.16166,0.63289 0.29289,1.30678 0.31168,1.95977 0.0228,1.19909 0.29554,2.36273 0.46117,3.54171 0.0352,0.25003 0.10609,0.49504 0.177,0.74004 0.0198,0.14288 0.13706,0.1995 0.28522,0.21511 0.0408,0.0307 0.11219,0.0206 0.18362,0.0106 1.03585,-0.14552 1.99549,-0.3167 3.05647,-0.28363 0.0714,-0.0101 0.17357,-0.0609 0.28072,-0.0759 1.02606,-0.21695 2.08783,-0.4392 3.15384,-0.37041 z m -1.93913,-4.2082 c -0.64294,0.0902 -0.64797,0.0545 -0.79984,-0.50694 -0.1061,-0.49504 -0.2069,-0.95462 -0.21087,-1.50045 0.006,-0.4744 -0.0998,-0.96944 -0.16986,-1.4695 -0.1958,-1.3933 -0.28946,-2.83739 -0.59241,-4.21561 -0.0759,-0.28072 -0.01,-0.32649 0.23072,-0.43312 0.72496,-0.2839 1.48034,-0.35375 2.25055,-0.31618 0.77522,0.0733 1.24354,0.55404 1.61951,1.15676 0.22886,0.33205 0.39132,0.71014 0.41593,1.1438 0.0751,0.53578 0.18626,1.0668 0.2614,1.60258 0.0302,0.21431 0.0246,0.43365 0.0905,0.64293 0.16722,0.41381 0.12039,0.85752 0.18071,1.28614 0.0138,0.61728 -0.24738,1.09115 -0.53948,1.60576 -0.14844,0.23945 -0.38365,0.38179 -0.65935,0.49345 -0.51064,0.25373 -1.03161,0.4363 -1.54172,0.43497 z m -1.57639,-13.29373 c -0.86228,0.0847 -0.86731,0.0489 -0.98769,-0.8083 -0.0804,-0.5715 -0.1614,-0.8882 -0.24157,-1.4597 -0.0357,0.005 -0.0352,-0.25004 -0.081,-0.31645 -0.0852,-0.60721 -0.13494,-1.21973 -0.22516,-1.86266 -0.1061,-0.49504 -0.31432,-0.93954 -0.313,-1.44965 l -0.0402,-0.28575 c 0.0156,-0.14791 0.11272,-0.23443 0.25056,-0.29025 0.10742,-0.0151 0.24527,-0.0709 0.35746,-0.0503 0.33152,0.0265 0.68871,-0.0238 1.00515,-0.10478 0.50006,-0.0701 0.94906,0.0124 1.35122,0.28363 0.6776,0.41487 1.18666,0.92631 1.2663,1.75287 l 0.26167,1.60258 c 0.0952,0.67892 -0.10001,1.36208 -0.33628,2.01454 -0.11271,0.23442 -0.31195,0.37174 -0.54716,0.51382 -0.54637,0.25903 -1.11284,0.37518 -1.72032,0.46037 z m 63.40819,-0.381 c 0.79772,-0.25241 1.55231,-0.68341 2.21297,-1.23004 0.26379,-0.20241 0.84826,-0.91255 0.80936,-1.25254 -0.0132,-0.11324 -0.33999,0.0392 -0.50138,0.0347 -0.73025,0.14102 -1.80208,-0.19526 -2.08757,-0.38074 -0.4445,-0.2704 -0.87365,-0.50826 -1.23507,-0.85725 -0.89958,-0.73501 -1.74916,-1.53326 -2.63128,-2.31616 -0.80142,-0.78078 -1.61819,-1.59411 -2.46989,-2.31166 -0.34634,-0.31618 -0.67521,-0.68051 -0.98874,-1.01177 -0.0937,-0.11562 -0.21987,-0.2159 -0.32888,-0.36433 -0.6141,-0.54954 -1.211,-1.14697 -1.87299,-1.71424 l -1.21338,-1.06627 c -0.14155,-0.13308 -0.18494,-0.31194 -0.19579,-0.50588 0.0225,-0.80619 -0.036,-1.61475 -0.0288,-2.45401 0,-1.19407 0.13018,-2.36882 0.0828,-3.58061 -0.0408,-0.85645 0.12991,-1.77165 0.0889,-2.6281 0.004,-0.1614 0.009,-0.32253 0.0463,-0.49901 l 0.11615,-1.28799 c -0.036,-1.61502 -0.007,-2.6633 0.0394,-3.75946 -0.028,-0.14605 -0.0235,-0.30719 -0.0519,-0.45324 -0.013,-0.11324 -0.18733,-0.23124 -0.28549,-0.18547 -0.24395,0.0741 -0.48816,0.1479 -0.71702,0.25453 -0.90038,0.45932 -1.65021,0.72893 -2.69902,1.29725 -0.24394,0.0738 -0.48815,0.14791 -0.6387,0.33735 -0.0677,0.11112 -0.16801,0.23733 -0.17013,0.31803 -0.0156,0.56435 -0.10742,0.96546 -0.0577,1.49939 0.12542,1.29461 0.0262,3.13161 -0.01,4.42198 -0.0156,0.56436 -0.0966,1.15914 -0.0968,1.75631 0.006,1.54966 -0.0675,3.01625 0.003,4.53522 0.0304,0.0656 0.013,0.1135 0.0109,0.19394 -0.0328,0.0153 -0.0503,0.0632 -0.0503,0.0632 -0.0804,-0.003 -0.12859,-0.0196 -0.15902,-0.0849 -0.0479,-0.0175 -0.0783,-0.0831 -0.10874,-0.14843 l -1.35599,-2.91015 c -0.25903,-0.55589 -0.50033,-1.15993 -0.72681,-1.73091 l -0.0325,0.0151 c -0.18283,-0.39238 -0.50271,-1.07898 -0.63765,-1.45389 -0.47228,-1.01388 -0.91175,-2.04285 -1.36895,-3.02366 -0.12171,-0.26167 -0.24368,-0.52334 -0.3982,-0.76967 -0.13944,-0.21352 -0.28311,-0.26591 -0.56012,-0.17674 -1.17714,0.54821 -2.27595,1.17951 -3.49885,1.62983 l -0.16352,0.0762 c -0.21352,0.13944 -0.28337,0.33126 -0.17674,0.56012 l 3.39725,7.29218 c 0.21326,0.45773 0.44159,0.94827 0.73554,1.40812 0.24607,0.44265 0.49213,0.88529 0.64003,1.37345 l 0.41963,1.15755 c 0.58341,1.08135 1.084,2.24102 1.55178,3.41604 0.42201,1.07685 1.05569,2.09497 1.54305,3.14139 0.18071,0.47308 0.39397,0.93081 0.59187,1.35599 l 2.95566,6.34392 c 0.10875,0.14817 0.25268,0.20055 0.41619,0.12435 1.07897,-0.50271 2.04259,-0.91175 3.12156,-1.41446 0.19632,-0.0913 0.35983,-0.16748 0.508,-0.27649 0.19632,-0.0913 0.26617,-0.2831 0.22278,-0.46196 l -0.19818,-0.42492 c -0.48974,-0.96573 -0.97948,-1.93173 -1.48669,-2.84957 -0.66172,-1.16416 -1.12739,-2.41961 -1.67561,-3.59701 -0.16774,-0.35956 -0.19155,-0.66701 -0.0844,-1.03505 0.072,-0.27252 0.0635,-0.54715 0.26406,-0.79983 0.38814,-0.0214 0.47492,0.33602 0.7276,0.53657 0.33338,0.20294 0.63183,0.50192 0.86466,0.83106 0.12409,0.18098 0.31379,0.33152 0.48789,0.44926 0.91705,0.68713 1.73381,1.50045 2.50269,2.29632 0.1569,0.1659 0.31354,0.33152 0.4879,0.44926 0.68394,0.35799 1.23507,0.85752 1.81874,1.34171 0.55351,0.41857 1.19407,0.59769 1.8542,0.64849 0.54716,0.0635 1.12898,0.0312 1.7108,-0.003 0.24209,0.007 0.50138,-0.0344 0.73025,-0.14102 z m -23.67148,9.15565 c 0.58976,-0.17172 1.09723,-0.46726 1.67508,-0.6731 0.96361,-0.3048 1.77218,-0.93742 2.336,-1.82748 l 0.33285,-0.46329 c 0.0998,-0.15028 0.24527,-0.27887 0.33285,-0.46328 0.26035,-0.66702 0.50852,-1.36816 0.4945,-2.05238 0.0495,-0.93662 0.11086,-1.83938 -0.2839,-2.73261 -0.0243,-0.068 -0.0606,-0.17013 -0.0508,-0.25003 -0.0987,-0.92234 -0.51514,-1.76954 -0.78369,-2.63128 -0.21802,-0.61172 -0.50377,-1.1991 -0.65379,-1.83515 -0.0627,-0.2839 -0.15954,-0.55589 -0.32438,-0.80354 -0.22516,-0.41752 -0.34872,-0.87128 -0.50588,-1.31313 -0.47202,-1.32556 -0.84217,-2.68711 -1.36022,-4.03437 l -0.63924,-1.68698 c -0.52996,-1.38139 -0.86836,-2.86914 -1.61475,-4.2119 -0.34396,-0.6432 -0.67574,-1.25254 -1.19962,-1.75551 -0.71041,-0.70432 -1.5957,-1.04008 -2.4593,-1.42161 -0.0582,-0.0561 -0.12621,-0.0317 -0.17224,-0.0537 -1.19116,-0.22675 -2.3876,-0.14526 -3.55759,0.11827 -1.40759,0.34819 -2.75273,0.98028 -3.90631,2.04205 -0.33523,0.34925 -0.64849,0.6522 -0.83317,1.10093 -0.0974,0.26459 -0.21881,0.46091 -0.32835,0.69136 -0.30401,0.75935 -0.60801,1.51844 -0.65961,2.34103 -0.0616,0.90276 0.10504,1.80076 0.41963,2.6842 0.36777,1.24778 0.84958,2.49317 1.22952,3.77455 0.20796,0.69188 0.4744,1.4396 0.75036,2.10714 0.54742,1.10702 0.78899,2.32304 1.23454,3.46631 0.60775,1.27687 1.18375,3.21627 1.75234,4.81356 0.26644,0.74771 0.62256,1.42505 0.92287,2.16059 0.35083,0.98557 1.09511,1.67772 1.72773,2.48655 l 0.20875,0.15531 c 1.08638,0.68527 2.25346,0.84429 3.47186,0.71676 0.78608,-0.0503 1.65021,-0.20479 2.44396,-0.44926 z m -1.75313,-4.27726 c -0.49001,0.0214 -0.97287,-0.15134 -1.33403,-0.52043 -0.18679,-0.20162 -0.43153,-0.45906 -0.52837,-0.73105 -0.34634,-0.7575 -0.70485,-1.54887 -0.97102,-2.29658 -0.22781,-0.53155 -0.38735,-1.08744 -0.56886,-1.59703 l -0.29051,-0.81571 c -0.31459,-0.8837 -0.51514,-1.76953 -0.9099,-2.66276 -0.34634,-0.75751 -0.69268,-1.51501 -0.95911,-2.26246 -0.57098,-1.71132 -0.99431,-3.4372 -1.70128,-5.1001 -0.22754,-0.53155 -0.29501,-1.04378 -0.2024,-1.53617 0.15637,-1.28112 1.28825,-2.29685 2.80194,-1.91691 0.53869,0.11456 0.89984,0.48366 1.14935,0.96917 0.10662,0.19182 0.20346,0.46381 0.27622,0.66754 0.21775,0.61172 0.45747,1.1774 0.67522,1.78911 0.26167,0.51965 0.33152,1.14565 0.55906,1.6772 0.27385,0.55351 0.33152,1.14591 0.6731,1.67508 0.005,0.22807 0.17648,0.81809 0.22728,1.06785 0.59822,1.35705 0.80354,2.47121 1.4015,3.82826 0.0606,0.16986 0.13308,0.37386 0.15981,0.55589 0.0505,0.24977 0.12329,0.45376 0.24209,0.67945 0.0701,0.09 0.10636,0.19182 0.1307,0.25982 0.17172,0.58976 0.4236,1.18957 0.62945,1.76715 0.27596,0.66755 0.41592,1.38351 0.54398,2.0656 0.0386,0.21617 0.0434,0.44424 0.082,0.66014 0.0214,0.49027 -0.18759,0.87101 -0.54716,1.15226 -0.43709,0.3855 -0.98081,0.57891 -1.53908,0.62468 z M 51.248553,179.73582 c 0,-0.0754 -0.20029,-0.25506 -0.223573,-0.21828 -0.01323,0.0212 0.03519,0.1868 0.08916,0.24289 0.06165,0.064 0.134409,0.0508 0.134409,-0.0246 z m -6.967009,-17.77021 c 0.319882,0.0651 0.640028,0.13018 0.972344,0.2749 0.332581,0.145 0.743479,0.16352 1.108869,0.20532 0.513821,0.0516 0.798512,-0.008 1.299104,-0.15055 0.341048,-0.11774 0.728663,-0.14446 1.068388,-0.37623 0.57785,-0.38259 0.612245,-0.37148 0.733425,0.31167 0.05874,0.17066 0.07223,0.36434 0.119856,0.56912 0.04921,0.31909 0.256381,0.49927 0.542131,0.55351 0.354542,0.0762 0.77761,0.17436 1.087967,0.38788 l 0.354277,0.0762 c 0.538427,0.21114 0.594783,0.15346 0.771789,-0.39608 l 0.187855,-0.58367 c 0.06376,-0.43418 0.311679,-0.73343 0.3302,-1.14432 0.357187,-0.75671 0.486039,-1.51104 0.740304,-2.30082 0.397668,-1.2364 0.709612,-1.96982 1.107281,-3.20596 l 0.154781,-0.48074 c 0.265113,-0.82418 0.473869,-1.59068 0.773377,-2.40401 0.309563,-0.96149 0.528109,-1.87642 0.940594,-2.80485 0.05503,-0.17171 0.110331,-0.34343 0.131233,-0.52599 0.01005,-0.14843 -0.04895,-0.31909 -0.20955,-0.40852 -0.905139,-0.36724 -1.811337,-0.84825 -2.839243,-0.95144 -0.445294,-0.0296 -0.891646,-0.1733 -1.339321,-0.431 -0.413279,-0.24659 -0.915988,-0.33285 -1.397,-0.48737 -0.137319,-0.0442 -0.353219,0.0378 -0.397404,0.17516 l -0.0553,0.17171 c -0.244211,0.64162 -0.465138,1.32821 -0.662782,2.06058 -0.09948,0.30903 -0.210079,0.65246 -0.297127,1.04113 -0.06535,0.32015 0.03889,0.46752 0.33708,0.60114 0.446352,0.14367 0.972608,0.27516 1.316037,0.38549 0.171715,0.0553 0.105304,0.26141 0.05001,0.43313 -0.06509,0.32014 -0.187854,0.58367 -0.287337,0.89297 -0.298186,0.9271 -0.619919,1.80895 -0.918104,2.73605 -0.08864,0.27464 -0.20029,0.50403 -0.277548,0.74454 -0.322792,0.76756 -0.842963,1.20676 -1.581415,1.49966 -0.250296,0.0709 -0.467519,0.0389 -0.718873,-0.004 l -0.721254,-0.23204 c -0.309033,-0.0995 -0.56171,-0.25665 -0.78105,-0.51673 -0.312737,-0.44159 -0.386027,-0.91996 -0.334433,-1.43378 0.103452,-1.0279 0.400579,-2.0693 0.823912,-3.03186 0.144992,-0.33258 0.300832,-0.69903 0.411163,-1.04246 1.122362,-3.95922 1.959504,-5.73616 2.784475,-8.65399 0.09948,-0.30903 0.175683,-0.66357 0.343958,-0.95038 0.246592,-0.41328 0.413544,-0.81439 0.432065,-1.22529 0.08467,-0.61701 0.410104,-1.15649 0.632089,-1.72931 0.187854,-0.58367 0.66384,-0.8853 1.256506,-0.95991 0.71755,-0.11033 1.324505,0.12303 1.898386,0.45931 0.379148,0.23548 0.633941,0.62072 0.627856,1.11125 0.04366,0.92366 -0.243417,1.81663 -0.77126,2.63208 -0.280988,0.40217 -0.677069,0.69162 -1.23534,0.77735 -0.114035,0 -0.239183,0.0368 -0.364331,0.0722 -0.04524,0.0233 -0.07858,0.1262 -0.0553,0.17171 0.08334,0.32994 0.25744,0.61331 0.522287,0.85011 0.425715,0.32649 0.862277,0.61859 1.344084,0.88715 0.194998,0.1008 0.401108,0.16695 0.618066,0.19896 0.40005,0.0529 0.821796,0.037 1.232694,0.0556 0.296863,0.0199 0.547158,-0.0513 0.808567,-0.15663 0.805921,-0.38497 1.449916,-0.9734 1.794933,-1.81001 0.211138,-0.53843 0.433388,-1.11099 0.599017,-1.62613 0.09948,-0.30904 0.130175,-0.64029 0.150019,-0.93716 0.02963,-0.44529 -0.05503,-0.88926 -0.0021,-1.28905 0.113242,-1.17633 -0.410369,-2.14048 -0.944827,-3.07049 -0.06985,-0.13626 -0.174096,-0.28336 -0.300302,-0.36195 -0.805657,-0.67601 -1.510771,-1.54701 -2.608527,-1.78673 -0.06853,-0.022 -0.137319,-0.0442 -0.160602,-0.0894 -0.631561,-0.39264 -1.34038,-0.54504 -2.071423,-0.62865 -1.530615,-0.18944 -2.989263,-0.0145 -4.338638,0.76412 -0.05636,0.0574 -0.147108,0.10398 -0.238125,0.15081 -1.203325,0.56013 -1.934633,1.5375 -2.458773,2.69505 -0.333904,0.80222 -0.724164,1.66185 -0.851958,2.53021 -0.05159,0.51408 -0.297127,1.0414 -0.520435,1.49992 -0.135202,0.18415 -0.190236,0.3556 -0.187855,0.58394 -0.02963,0.44529 -0.173302,0.89164 -0.305858,1.3036 -0.487362,1.397 -0.848519,2.87258 -1.461029,4.30503 -0.39026,0.85964 -0.676275,1.86664 -0.86069,2.79268 -0.08705,0.38867 -0.163248,0.74322 -0.319087,1.10993 -0.401373,0.89403 -0.699823,1.82113 -0.998273,2.74823 -0.200025,0.50429 -0.297127,1.0414 -0.279929,1.57744 0.02408,1.22052 0.08255,2.4519 0.824177,3.56209 0.386292,0.92022 1.258094,1.39012 2.061369,1.83806 0.252677,0.15716 0.550598,0.29104 0.859895,0.39052 z m 14.480117,3.86054 c 0.741627,0.15478 1.475846,0.34449 2.224881,0.46381 0.494506,0.10319 0.968375,0.12806 1.477433,0.1606 0.247121,0.0513 0.382588,-0.0677 0.426773,-0.27966 0.059,-0.28258 0.153194,-0.55774 0.13388,-0.81968 0.04127,-0.7284 0.347397,-1.84362 0.459316,-2.55746 0.178329,-1.03135 0.427038,-2.04814 0.633148,-3.03715 0.102923,-0.49425 0.198702,-0.95356 0.329671,-1.40521 0.210608,-0.65616 0.456406,-1.30519 0.454819,-2.00554 -0.0058,-0.14869 0.08678,-0.23997 0.228071,-0.21061 0.254793,0.0164 0.509322,0.0325 0.756443,0.0841 0.691621,0.21775 1.412611,0.29422 2.141009,0.33549 1.3716,0.13864 2.632604,-0.0778 3.764227,-0.91043 1.287727,-0.87392 2.230966,-2.04073 2.62546,-3.58008 0.08837,-0.42359 0.176742,-0.84746 0.335756,-1.2565 0.389996,-0.98743 0.497417,-2.03359 0.703527,-3.0226 0.09578,-0.45905 0.12065,-0.93292 0.18124,-1.39938 0.07064,-0.86969 0.183885,-1.76715 0.106098,-2.63102 -0.04419,-0.67257 -0.236802,-1.33906 -0.564886,-1.88648 -0.663575,-1.05965 -1.470025,-1.96453 -2.669116,-2.39871 -0.515144,-0.18124 -1.030023,-0.36222 -1.502569,-0.57124 -1.103577,-0.009 -2.091002,-0.39899 -3.157802,-0.58446 -0.819415,-0.13388 -1.609725,-0.40905 -2.450042,-0.62098 -0.459052,-0.0958 -0.925512,-0.1561 -1.399381,-0.18124 -0.254529,-0.0161 -0.339725,0.0397 -0.391319,0.28681 l -0.868627,4.16745 c -0.441589,2.11879 -0.925777,4.26588 -1.367631,6.38466 -0.213254,1.02421 -0.398727,2.09101 -0.619654,3.1504 -0.08837,0.42386 -0.211931,0.84031 -0.229658,1.27873 -0.01773,0.43868 -0.247386,0.83291 -0.335757,1.25677 -0.192616,1.10225 -0.519377,2.13942 -0.57097,3.27104 l -0.01482,0.0707 c -0.242888,1.16549 -0.493183,2.36617 -0.771261,3.52425 l 0.03519,0.007 c -0.08837,0.42387 -0.211931,0.84032 -0.265112,1.27133 l -0.632884,3.03715 c -0.04418,0.21193 0.03228,0.37518 0.236802,0.45482 0.176742,0.0368 0.381265,0.11615 0.557742,0.15293 z m 7.34986,-13.87131 c -0.204523,-0.0794 -0.316177,-0.25003 -0.271991,-0.46197 0.01614,-0.25452 0.110331,-0.52969 0.169068,-0.81227 0.207698,-1.17289 0.52123,-2.32357 0.656696,-3.32713 l 0.9525,-4.03913 c 0.102923,-0.49451 0.223573,-0.54319 0.718079,-0.44 0.239713,0.0868 0.494242,0.10292 0.741627,0.15451 0.459052,0.0958 0.896144,0.2974 1.275821,0.5977 0.478102,0.35745 0.644261,0.79745 0.597165,1.37715 -0.02355,0.28999 0.01614,0.62998 -0.0426,0.91255 -0.246063,1.53326 -0.560917,2.86782 -0.96864,4.29366 -0.09578,0.45905 -0.312208,0.96679 -0.513821,1.40388 -0.266435,0.57097 -0.713581,0.77258 -1.293547,0.72522 -0.219075,-0.009 -0.431007,-0.0529 -0.642938,-0.0971 z m 10.600796,17.1061 c 1.226079,0.0765 2.43496,0.29607 3.652573,0.44424 0.286544,0.0349 0.577321,0.0339 0.832379,0.0286 0.111919,-0.0228 0.259292,-0.041 0.304006,-0.10848 0.0934,-0.17012 0.128059,-0.45667 0.150019,-0.63579 0.140229,-0.85513 0.133085,-1.69174 0.273315,-2.54688 0.08731,-0.71623 0.17436,-1.43245 0.225689,-2.15291 0.03043,-0.25083 0.06535,-0.53737 0.135996,-0.81942 0.01746,-0.14314 0.03387,-0.57732 0.06429,-0.82788 0.148166,-1.21761 0.1016,-1.73196 0.357187,-2.93661 0.07514,-0.31776 0.197909,-1.02976 0.169863,-1.39647 -0.04736,-0.80539 0.08863,-1.62454 0.184414,-2.41247 0.121973,-1.00277 0.559594,-4.00209 0.84799,-6.07483 0.169862,-1.39647 0.228071,-2.77046 0.469635,-4.15846 0.13044,-1.07421 0.310092,-2.2516 0.440796,-3.32581 0.0217,-0.17913 0.07514,-0.31803 0.05662,-0.46567 0.0164,-0.43418 0.105569,-0.56859 -0.221192,-0.57203 -0.433916,-0.0164 -1.154641,-0.0677 -1.57136,-0.22754 -0.491596,0.15822 -0.935302,-0.0773 -1.400969,-0.13388 l -1.253331,-0.15266 c -0.322263,-0.0392 -0.478631,0.0508 -0.553508,0.36883 -0.167482,0.77919 -0.160338,1.61581 -0.291836,2.39924 -0.166687,1.06997 -0.292894,2.10846 -0.423598,3.18293 -0.148166,1.21762 -0.26035,2.43946 -0.408516,3.65708 0.0053,0.25505 -0.02514,0.50561 -0.127265,0.74771 -0.135996,0.81915 -0.276225,1.67428 -0.3048,2.50666 -0.03731,0.90408 -0.110596,1.80366 -0.366977,2.71727 -0.06641,0.24633 -0.101071,0.53287 -0.06429,0.82788 0.02355,0.4027 -0.06456,0.82815 -0.148166,1.21761 -0.127265,0.74772 -0.259028,1.53115 -0.319088,2.32331 -0.111125,1.51289 -0.329935,3.01255 -0.508529,4.48072 -0.183886,1.21338 -0.332052,2.43073 -0.480219,3.64834 -0.03466,0.28654 0.02805,0.36698 0.278871,0.3974 z m 12.144639,1.33932 c 2.199482,0.068 4.394729,0.28046 6.599767,0.16828 0.541867,-0.0193 1.080558,0.0696 1.625865,-0.0579 0.109272,-0.0328 0.252412,0.008 0.359568,0.0471 1.041136,0.17674 1.80049,0.12806 2.557727,0.15161 0.324647,0.01 0.437087,-0.13097 0.483397,-0.45429 0.007,-0.21643 0.0482,-0.39555 0.0537,-0.576 0.0201,-0.64902 -0.0667,-1.33747 0.0617,-1.98305 0.0844,-0.3945 -0.0127,-0.7583 -5.3e-4,-1.15491 0.009,-0.28839 -0.0609,-0.36274 -0.38418,-0.40904 l -0.396609,-0.0122 c -1.195652,0.1434 -2.663825,-0.22675 -3.861594,-0.0114 -0.829204,-0.0257 -1.61925,-0.15849 -2.451894,-0.0759 -0.108214,-0.003 -0.180181,-0.006 -0.287337,-0.045 -0.108215,-0.003 -0.142081,-0.0765 -0.138642,-0.18468 -0.03149,-0.14525 0.04604,-0.32332 0.01455,-0.46884 -0.07461,-1.08505 -0.004,-2.2016 -0.0066,-3.28453 -0.0069,-0.93848 0.131233,-1.90871 0.08837,-2.84851 0.0056,-0.18018 0.0471,-0.35957 0.05371,-0.57573 0.0045,-0.1442 0.114829,-0.21299 0.26035,-0.24474 1.338527,-0.10292 2.704306,0.0839 4.038335,0.12515 0.432859,0.0135 0.9398,-0.0431 1.338527,-0.10293 0.217488,-0.0294 0.3302,-0.17012 0.336815,-0.38655 0.05847,-0.71993 0.04472,-1.44225 0.103188,-2.16244 0.0889,-0.53843 0.142875,-1.11443 0.0164,-1.69572 -0.09578,-0.40005 -0.130704,-0.43709 -0.491332,-0.4482 -0.649022,-0.0201 -1.335352,-0.005 -1.979877,-0.1696 -0.143139,-0.0408 -0.287337,-0.045 -0.468841,-0.0146 -0.761471,0.12065 -1.553634,0.0601 -2.306373,-0.10769 -0.215371,-0.0426 -0.475456,0.20188 -0.611981,-0.055 -0.102659,-0.18362 -0.09472,-0.43603 -0.12409,-0.65352 -0.02831,-0.25347 -0.02037,-0.50588 -0.0127,-0.7583 -0.0545,-1.73408 0.286544,-3.41974 0.268023,-5.15276 0.0021,-0.0722 0.04048,-0.14314 0.0426,-0.21537 0.03942,-0.10689 0.115094,-0.21299 0.26035,-0.24447 0.9398,-0.0431 1.838854,0.0569 2.740289,0.0849 l 0.650082,-0.0161 c 0.468841,0.0146 0.93636,0.0653 1.40626,0.0437 0.681831,0.12939 1.262062,0.0392 1.875101,0.0582 0.36169,-0.0251 0.43709,-0.13097 0.51938,-0.45323 0.17753,-1.07712 0.0296,-2.12857 0.20743,-3.20569 0.0429,-0.21537 -0.0587,-0.43497 -0.0881,-0.65246 -0.0281,-0.25347 -0.0982,-0.32782 -0.35058,-0.33576 -1.478225,-0.0458 -2.91941,-0.12647 -4.365093,-0.063 -0.361686,0.0249 -0.754857,-0.0955 -1.117865,-0.0347 -0.58129,0.12647 -1.191948,0.0354 -1.767681,-0.0185 -0.720196,-0.0585 -1.364721,-0.22278 -2.091531,-0.0648 -0.146315,0.0677 -0.432594,-0.0135 -0.612775,-0.019 l -1.799696,-0.16405 c -0.252413,-0.008 -0.40005,0.096 -0.408782,0.38444 -0.06297,0.8644 -0.08863,1.6936 -0.04339,2.56117 -0.0066,0.21643 -0.01323,0.43259 -0.05609,0.64797 -0.124883,0.53736 -0.140494,1.04219 -0.121179,1.58432 0.01482,0.68607 0.02963,1.37239 0.0074,2.09338 -0.03889,2.41697 -0.113771,4.83288 -0.188648,7.24879 0.01932,0.54187 -0.03334,1.08162 -0.01402,1.62375 0.0418,0.97578 0.01164,1.94919 -0.01852,2.92285 -0.120915,2.73923 -0.133615,5.48191 -0.397669,8.18066 -0.0045,0.14419 0.02831,0.25347 0.02381,0.39766 -0.0045,0.1442 0.02725,0.28946 -0.01455,0.46885 -0.05821,0.71993 0.01376,0.72204 0.698765,0.74348 0.107156,0.0392 0.215371,0.0426 0.287337,0.045 z m 23.877854,-36.62997 c 3.15119,-0.54954 1.43457,-2.02089 1.28243,-2.15133 -1.81742,-1.55786 -2.47359,-1.15781 -2.84903,-3.49197 -0.43339,-2.69504 0.0937,-3.02471 -1.2618,-3.86794 -10.718004,-6.6675 -12.770641,-5.17419 -13.607783,-4.06427 -0.933714,1.23825 2.44475,3.47319 2.751138,3.67586 5.331885,3.52742 9.174695,10.68599 13.685045,9.89965 z"
       style="clip-rule:evenodd;fill-rule:evenodd;stroke-width:0.264583;stroke-linejoin:round;stroke-miterlimit:2" />
  </g>
</svg>
